<svg id="Layer_1" data-name="Layer 1" xmlns="http://www.w3.org/2000/svg" xmlns:xlink="http://www.w3.org/1999/xlink" viewBox="0 0 1763.35 401"><defs><style>.cls-1{fill:url(#linear-gradient);}.cls-2{fill:url(#linear-gradient-2);}.cls-3{fill:url(#linear-gradient-3);}.cls-4{fill:url(#linear-gradient-4);}.cls-5{fill:url(#linear-gradient-5);}.cls-6{fill:url(#linear-gradient-6);}</style><linearGradient id="linear-gradient" x1="498.17" y1="-253" x2="1043.79" y2="-253" gradientTransform="matrix(1, 0, 0, -1, -366, 660)" gradientUnits="userSpaceOnUse"><stop offset="0.7" stop-color="#ffc15e" stop-opacity="0.2"/><stop offset="1" stop-opacity="0"/></linearGradient><linearGradient id="linear-gradient-2" x1="1521.94" y1="-220" x2="2175.38" y2="-220" gradientTransform="matrix(1, 0, 0, -1, -366, 660)" gradientUnits="userSpaceOnUse"><stop offset="0" stop-color="#ffaa3e" stop-opacity="0.4"/><stop offset="0.93" stop-color="#110b04" stop-opacity="0.03"/><stop offset="1" stop-opacity="0"/></linearGradient><linearGradient id="linear-gradient-3" x1="854.36" y1="-590.9" x2="1154.84" y2="-590.9" gradientTransform="matrix(1, 0, 0, -1, -366, 397.1)" gradientUnits="userSpaceOnUse"><stop offset="0" stop-color="#959595" stop-opacity="0.2"/><stop offset="1" stop-opacity="0"/></linearGradient><linearGradient id="linear-gradient-4" x1="1304.36" y1="-590.9" x2="1604.84" y2="-590.9" gradientTransform="matrix(1, 0, 0, -1, -366, 397.1)" gradientUnits="userSpaceOnUse"><stop offset="0" stop-color="#959595" stop-opacity="0.2"/><stop offset="1" stop-color="#ffc646" stop-opacity="0.4"/></linearGradient><linearGradient id="linear-gradient-5" x1="770.52" y1="-631.56" x2="938.2" y2="-631.56" xlink:href="#linear-gradient-3"/><linearGradient id="linear-gradient-6" x1="2028" y1="-612.4" x2="2261.53" y2="-612.4" xlink:href="#linear-gradient-3"/></defs><title>full_m1_ly1</title><path class="cls-1" d="M673.25,1073.17q-18.4-23.25-36.89-46.35c-.78-1-2.29-1.36-3.46-2l-.9-1.47a15.57,15.57,0,0,0-1.44-3.8q-4.51-6-9.39-11.81c-2.94-3.52-6.07-6.9-9.12-10.32l-1.36-.17c-.37-.93-.73-1.85-1.1-2.77-.47-.53-.94-1.06-1.42-1.58l-1.63-2.25L605.12,989l-1.64-2.24-2-1.75-.82-.68h0l-.1-1.48h0c-3.47-4.63-6.82-9.34-10.43-13.87q-16.29-20.57-32.72-41c-2.24-2.78-4.87-5.25-7.32-7.86h0c-1.31-3.61-3-6.89-6.87-8.41h0c.11-2.6-1.24-3.81-3.73-3.91l-1-1.49-.65-1.54h0c-2.54-3.72-4.88-7.6-7.67-11.12-9.88-12.53-19.95-24.91-29.9-37.38-8.09-10.11-16.05-20.28-24.1-30.39-12.62-15.85-25.17-31.76-37.92-47.49-3.72-4.58-8-8.68-12.06-13-.09-.44-.17-.87-.25-1.32-.44-.56-.89-1.14-1.32-1.71l-1.37-.15L421.58,760l-1.41-1.57c-.14-.68-.27-1.32-.41-2l-2.95-3.13-1.55-1.62a44.84,44.84,0,0,0-3.41-5.69c-.15-.19-2.73,1.07-3.71,2.11-1.16,1.2-1.79,2.91-2.66,4.39l.58-.39-.58.39h0l-1.54,2.29-1.75,2.88L400,760l-3.82,4.62c-.68.25-1.59.31-2.05.79q-4.2,4.68-8.24,9.49c-8.53,10.23-17,20.49-25.54,30.72-7.49,9-15,17.87-22.49,26.84s-14.79,18.07-22.27,27-15,17.59-22.37,26.44c-8.3,9.92-16.45,20-24.76,29.88-10,12-20.22,23.79-30.22,35.77-10.55,12.66-20.91,25.49-31.47,38.17-12.35,14.8-24.85,29.48-37.24,44.27q-15,17.93-29.91,36c-2.63,3.21-5,6.66-7.43,10H677.79A78.53,78.53,0,0,0,673.25,1073.17Z" transform="translate(-132.17 -680)"/><path class="cls-2" d="M1803.94,1071.82q-22-27.85-44.17-55.51c-.94-1.17-2.75-1.63-4.16-2.45l-1.07-1.75c-.55-1.54-.81-3.27-1.72-4.56q-5.41-7.21-11.25-14.14c-3.53-4.21-7.27-8.26-10.92-12.36l-1.63-.21-1.32-3.31c-.56-.63-1.12-1.26-1.7-1.89l-2-2.7c-.57-.63-1.13-1.25-1.69-1.89l-2-2.68-2.45-2.1-1-.81h0l-.12-1.77h0c-4.16-5.55-8.17-11.19-12.49-16.62q-19.51-24.62-39.18-49.08c-2.69-3.33-5.84-6.29-8.78-9.41h0c-1.56-4.33-3.62-8.25-8.23-10.08h0c.14-3.11-1.48-4.56-4.46-4.68l-1.2-1.78-.77-1.84h0c-3-4.46-5.85-9.11-9.19-13.33-11.84-15-23.89-29.82-35.8-44.76-9.7-12.12-19.24-24.29-28.87-36.4-15.12-19-30.14-38-45.42-56.87-4.45-5.49-9.61-10.39-14.44-15.56l-.3-1.58c-.53-.67-1.06-1.36-1.58-2l-1.64-.18-2-2.71-1.69-1.87c-.17-.82-.32-1.58-.49-2.37l-3.54-3.76-1.85-1.93a54.63,54.63,0,0,0-4.08-6.82c-.18-.23-3.27,1.28-4.45,2.53-1.38,1.44-2.14,3.48-3.18,5.26.22-.16.45-.32.69-.47-.24.15-.47.31-.69.47h0l-1.85,2.74-2.1,3.45-2.64,2.78q-2.3,2.76-4.57,5.53c-.82.3-1.91.37-2.45.94q-5.06,5.61-9.88,11.38-15.32,18.36-30.58,36.78c-9,10.73-18,21.4-26.94,32.15s-17.71,21.63-26.67,32.36-17.95,21.06-26.79,31.66c-9.94,11.88-19.7,23.91-29.65,35.78-12,14.33-24.21,28.49-36.19,42.84-12.64,15.16-25,30.53-37.69,45.71-14.8,17.73-29.77,35.32-44.6,53q-18,21.48-35.82,43.11c-3.15,3.84-5.94,8-8.9,12h653.44A95.12,95.12,0,0,0,1803.94,1071.82Z" transform="translate(-132.17 -680)"/><path class="cls-3" d="M786.3,1076.15q-10.12-12.81-20.31-25.55a6.49,6.49,0,0,0-1.92-1.12c-.16-.27-.32-.54-.49-.81a7.44,7.44,0,0,0-.81-2.1c-1.66-2.22-3.39-4.38-5.17-6.48-1.62-1.94-3.34-3.79-5-5.67l-.76-.09c-.2-.51-.41-1-.6-1.53l-.81-.87-.9-1.24-.81-.87-.9-1.23-1.08-1-.45-.39h0a3.64,3.64,0,0,0-.06-.81h0c-1.91-2.55-3.76-5.14-5.74-7.64q-9-11.34-18-22.57c-1.23-1.53-2.68-2.89-4.05-4.33h0c-.72-2-1.67-3.79-3.79-4.63h0c0-1.44-.68-2.1-2.06-2.16l-.55-.81c-.12-.26-.24-.53-.35-.81h0c-1.4-2-2.69-4.18-4.22-6.12-5.45-6.9-11-13.71-16.47-20.59-4.44-5.56-8.82-11.16-13.24-16.74-6.93-8.76-13.85-17.52-20.9-26.14-2-2.52-4.42-4.78-6.64-7.16,0-.24-.1-.48-.14-.72l-.73-1-.75-.08-.89-1.24-.81-.86-.22-1.09L645,900l-.81-.89a21.57,21.57,0,0,0-1.87-3.13,4.85,4.85,0,0,0-2,1.16,12,12,0,0,0-1.46,2.43l.31-.22-.31.22h0l-.81,1.25-1,1.62-1.21,1.28-2.11,2.55c-.37.14-.87.17-1.11.43q-2.32,2.58-4.54,5.23Q621,920.4,614,928.87c-4.11,4.93-8.27,9.84-12.37,14.78s-8.1,10-12.27,14.88-8.24,9.73-12.32,14.59c-4.57,5.46-9,11-13.63,16.46-5.53,6.58-11.14,13.09-16.65,19.7-5.81,7-11.52,14-17.33,21-6.81,8.16-13.69,16.2-20.51,24.39q-8.28,9.87-16.48,19.82c-1.45,1.77-2.73,3.66-4.09,5.5H788.84A39.44,39.44,0,0,0,786.3,1076.15Z" transform="translate(-132.17 -680)"/><path class="cls-4" d="M1236.3,1076.15q-10.12-12.81-20.31-25.55a6.49,6.49,0,0,0-1.92-1.12c-.16-.27-.32-.54-.49-.81a7.44,7.44,0,0,0-.81-2.1c-1.66-2.22-3.39-4.38-5.17-6.48-1.62-1.94-3.34-3.79-5-5.67l-.76-.09c-.2-.51-.41-1-.6-1.53l-.81-.87-.9-1.24-.81-.87-.9-1.23-1.08-1-.45-.39h0a3.64,3.64,0,0,0-.06-.81h0c-1.91-2.55-3.76-5.14-5.74-7.64q-9-11.34-18-22.57c-1.23-1.53-2.68-2.89-4-4.33h0c-.72-2-1.67-3.79-3.79-4.63h0c.05-1.44-.68-2.1-2.06-2.16l-.55-.81c-.12-.26-.24-.53-.35-.81h0c-1.4-2-2.69-4.18-4.22-6.12-5.45-6.9-11-13.71-16.47-20.59-4.44-5.56-8.82-11.16-13.24-16.74-6.93-8.76-13.85-17.52-20.9-26.14-2-2.52-4.42-4.78-6.64-7.16-.05-.24-.1-.48-.14-.72l-.73-1-.75-.08-.89-1.24-.81-.86-.22-1.09L1095,900l-.81-.89a21.57,21.57,0,0,0-1.87-3.13,4.85,4.85,0,0,0-2,1.16,12,12,0,0,0-1.46,2.43l.31-.22-.31.22h0l-.81,1.25-1,1.62-1.21,1.28-2.11,2.55c-.37.14-.87.17-1.11.43q-2.32,2.58-4.54,5.23-7,8.44-14.07,16.92c-4.11,4.93-8.27,9.84-12.37,14.78s-8.1,10-12.27,14.88-8.24,9.73-12.32,14.59c-4.57,5.46-9,11-13.63,16.46-5.53,6.58-11.14,13.09-16.65,19.7-5.81,7-11.52,14-17.33,21-6.81,8.16-13.69,16.2-20.51,24.39q-8.28,9.87-16.48,19.82c-1.45,1.77-2.73,3.66-4.09,5.5h300.48A39.44,39.44,0,0,0,1236.3,1076.15Z" transform="translate(-132.17 -680)"/><path class="cls-5" d="M570.78,1077.85q-5.64-7.14-11.33-14.25a3.73,3.73,0,0,0-1.07-.63c-.09-.15-.18-.3-.28-.45a4.12,4.12,0,0,0-.45-1.18c-.92-1.23-1.89-2.44-2.88-3.61s-1.87-2.12-2.8-3.17l-.43,0c-.11-.28-.23-.57-.33-.85l-.46-.48-.5-.7-.45-.48-.5-.69-.6-.56-.26-.21h0a2.32,2.32,0,0,0,0-.46h0c-1.06-1.42-2.1-2.87-3.2-4.26q-5-6.33-10.07-12.6c-.68-.85-1.49-1.61-2.26-2.41h0a3.88,3.88,0,0,0-2.11-2.59h0c0-.8-.38-1.17-1.15-1.2l-.31-.45-.19-.45h0c-.78-1.14-1.5-2.34-2.36-3.42-3-3.85-6.13-7.65-9.19-11.49-2.47-3.1-4.92-6.23-7.39-9.34-3.86-4.89-7.72-9.78-11.66-14.59-1.14-1.41-2.47-2.66-3.71-4,0-.14-.05-.27-.07-.41l-.41-.52-.42-.05-.49-.69-.45-.48-.13-.61-.9-1-.45-.49a11.93,11.93,0,0,0-1.05-1.75,2.72,2.72,0,0,0-1.14.65,7.11,7.11,0,0,0-.81,1.35l.17-.12-.17.12h0l-.46.7-.53.91-.68.71-1.18,1.42c-.21.08-.49.1-.62.24-.86,1-1.71,1.93-2.53,2.92q-3.93,4.71-7.85,9.44c-2.3,2.76-4.62,5.5-6.91,8.25s-4.52,5.55-6.84,8.31-4.6,5.42-6.88,8.13c-2.55,3-5.05,6.14-7.6,9.19-3.09,3.67-6.22,7.31-9.29,11-3.25,3.89-6.43,7.84-9.68,11.73-3.79,4.55-7.64,9-11.44,13.61q-4.62,5.51-9.2,11.06c-.81,1-1.52,2-2.28,3.07H572.2A20.51,20.51,0,0,0,570.78,1077.85Z" transform="translate(-132.17 -680)"/><path class="cls-6" d="M1893.55,1078q-7.87-10-15.79-19.86a5.24,5.24,0,0,0-1.48-.87l-.39-.63a5.68,5.68,0,0,0-.63-1.63q-1.93-2.6-4-5c-1.26-1.5-2.6-2.94-3.91-4.4l-.59-.07c-.16-.4-.31-.8-.46-1.19l-.63-.68-.7-1-.63-.68-.7-1-.84-.77-.35-.3h0a3.23,3.23,0,0,0,0-.63h0c-1.49-2-2.93-4-4.47-5.94q-7-8.82-14-17.54c-1-1.19-2.09-2.25-3.15-3.37h0a5.4,5.4,0,0,0-3-3.6h0c0-1.11-.52-1.63-1.59-1.67l-.43-.63c-.09-.21-.19-.42-.27-.63h0c-1.09-1.59-2.09-3.25-3.28-4.76-4.24-5.36-8.55-10.66-12.8-16-3.45-4.32-6.86-8.68-10.3-13-5.38-6.81-10.75-13.62-16.24-20.32-1.59-2-3.43-3.71-5.16-5.56,0-.19-.07-.37-.11-.56l-.56-.74-.58-.06-.69-1-.63-.68-.17-.84q-.65-.68-1.26-1.35l-.63-.68a17.69,17.69,0,0,0-1.46-2.44,3.63,3.63,0,0,0-1.58.9,8.88,8.88,0,0,0-1.14,1.89l.24-.17-.24.17h0l-.63,1-.75,1.26-1,1-1.63,2c-.29.1-.68.13-.87.34q-1.8,2-3.53,4.06-5.47,6.55-10.93,13.15c-3.19,3.83-6.42,7.65-9.62,11.49s-6.29,7.73-9.53,11.56-6.4,7.55-9.57,11.33c-3.55,4.25-7,8.55-10.6,12.79-4.29,5.12-8.65,10.18-12.93,15.31-4.52,5.43-9,10.91-13.48,16.34-5.28,6.33-10.64,12.59-15.94,19q-6.43,7.68-12.8,15.41c-1.13,1.37-2.12,2.84-3.18,4.27h233.53A29.22,29.22,0,0,0,1893.55,1078Z" transform="translate(-132.17 -680)"/></svg>