<svg id="Layer_1" data-name="Layer 1" xmlns="http://www.w3.org/2000/svg" xmlns:xlink="http://www.w3.org/1999/xlink" viewBox="0 0 1010.92 478.14"><defs><style>.cls-1{fill:url(#linear-gradient);}.cls-2{fill:url(#linear-gradient-2);}.cls-3{fill:url(#linear-gradient-3);}</style><linearGradient id="linear-gradient" x1="592.92" y1="670.93" x2="1376.92" y2="670.93" gradientUnits="userSpaceOnUse"><stop offset="0" stop-color="#959595" stop-opacity="0.2"/><stop offset="1" stop-opacity="0"/></linearGradient><linearGradient id="linear-gradient-2" x1="844.92" y1="904.04" x2="844.92" y2="904.04" gradientUnits="userSpaceOnUse"><stop offset="0" stop-color="#959595"/><stop offset="1" stop-opacity="0"/></linearGradient><linearGradient id="linear-gradient-3" x1="366" y1="796.45" x2="737" y2="796.45" xlink:href="#linear-gradient"/></defs><title>m5_ly2</title><path class="cls-1" d="M1363.92,893h0c-3.91-3-8-5.74-8.89-11.13L1334.66,856c-.29-.64-.57-1.27-.86-1.9h0c-2.53-2.46-5.32-4.71-7.54-7.42-3.62-4.41-6.88-9.13-10.29-13.73l-31.89-40.08c-1.77-1.53-3.85-2.81-5.26-4.61-1.19-1.5-2.35-3-3.51-4.54-3.48-4.56-6.87-9.2-10.31-13.79l-3.06-4-1.94-2-2.06-3-2.06-2.94h0q-3-4.47-6-8.92l0,0-3-3.94L1223.7,717c-5.6-6.42-11.32-12.75-16.74-19.32-1.8-2.19-2.83-5-4.21-7.54l-5-6c-4.55-.77-4.7-4.82-6-8l-1-1-2.83-2.14c-.57-.77-1.15-1.53-1.71-2.3-.21-.8-.42-1.6-.64-2.39l-2.65-1.32-1.64-2.34-2.16-2.82-3.93-5.1c-.12-.55-.23-1.09-.35-1.63l-1.93-1.09-3.12-3.89h0q-1.8-2.21-3.58-4.42l-1.17-1.78h0l-3.17-3.87-2-2-2.67-3.36a2.14,2.14,0,0,0-.2-.74l-4.13-4.9h0l-1.74-2.29q-1.19-1.83-2.35-3.66c-2.1.07-3.34-.7-3.76-2.25a5.28,5.28,0,0,1-.13-.84,6.23,6.23,0,0,1,0-1c-.37-1-.74-2-1.12-2.92l-2.73-2.19h0l-2.22-2.78L1127,596l-12.15-15.85c-4.44-4.81-9.13-9.43-13.26-14.49-3.51-4.3-6.39-9.11-9.54-13.69l-1.91-2.16c-2.68-2.77-5.63-5.33-8-8.36-3.61-4.65-6.81-9.61-10.18-14.44l-1.88-2.1c-3.61-3.81-7.4-7.47-10.77-11.48a24.38,24.38,0,0,1-1.49-2c-.35-.51-.69-1-1-1.57-1-1.6-1.9-3.26-2.9-4.85l-2.07-3.89c-.12-.27-.22-.54-.32-.81-1.25-.71-2.85-1.14-3.71-2.17-5.86-7.08-11.59-14.28-17.3-21.48-.33-.43-.18-1.24-.25-1.88-.54-1.15-1.1-2.31-1.65-3.46l-1.66-.32-2.08-3-.92-1-1.64-2.26-.57-1.58-1.8-1.12-1.68-2.28-3.17-4-1.8-2-1.23-1.92c-1.32-1.65-2.65-3.29-4-4.94l-1-1.1-3.38-4.66a4.56,4.56,0,0,1-.75-.18c-.86-1.08-1.71-2.17-2.55-3.25-.11-.28-.24-.56-.37-.83L997.9,435l-.15-1.84-1.71-1.3h0l-5.11.1-2.13,3-8,8.94h0a87,87,0,0,1-6.4,10A48.2,48.2,0,0,1,970,459a37.57,37.57,0,0,1-6.69,5.31l-6.51,8.65h0L954.92,476l-2.51,1.28-1.3,2h0l-.21.32q-1.46,2.22-2.9,4.44l-2.08,3-4.52,3.31h0c-.44.64-.88,1.28-1.33,1.91-.91,1-1.83,2.05-2.75,3.08-.24.81-.49,1.62-.74,2.42h0c-.55.76-1.11,1.52-1.66,2.29l-4.48,3.3-.37.91c-.6.68-1.2,1.35-1.79,2,.59-.68,1.19-1.35,1.79-2-.6.68-1.2,1.35-1.79,2l-2.22,2.94-4,4.89-1,1.1-3.72,4.09c-.48.9-1,1.79-1.46,2.69l-3.09,3.92L910,528.12c-4.42,6.12-8.57,12.46-13.32,18.32q-18.42,22.75-37.35,45.09c-3,3.56-6.87,6.41-10.34,9.58l-.95,1c1.25,3.75-1.29,4.45-4,5a7.1,7.1,0,0,1-.41.7c-1,1.32-1.91,2.65-2.87,4l-6.7,7.37L831,623.07l-1,1-10.19,12.78c-.12.28-.24.56-.37.83l-3.68,4.09c-1.1,1.3-2.21,2.6-3.31,3.91h0l-1.58,2.1-2.85,2.3h0l-3,4q-8.19,9.92-16.39,19.81h0l-.81,1.94-2.53,1.42-1.27,1.88q-1.91,2-3.79,4.09,1.89-2.06,3.79-4.09-1.91,2-3.79,4.09c-.74,1-1.47,1.94-2.21,2.9l-1.8,2.09c-.46.91-.92,1.81-1.39,2.71h0l-2,3L771,696l-3.06,4L765,702.05l-1.38,2.64h0c-.57.77-1.13,1.55-1.69,2.32l-2.62,1.27-2.22,2.9c-.39.93-.78,1.87-1.18,2.81-.79,3.19-2,6-6,6l-6.89,8.09L739,733.06l-1,1c-2.24,7.06-8,11.16-13.13,15.87l-1,1L721,754.14c-1.4,1.82-2.77,3.67-4.23,5.45-10,12.23-19.92,24.51-30,36.62-8.44,10.08-17.12,19.95-25.7,29.92-4.64,9.07-10.73,16.94-19,23-3,3.67-6,7.34-9.1,11q-13.41,16-26.84,32L592.92,910h784l-4.08-6C1368.1,901.79,1365,898.25,1363.92,893Z" transform="translate(-366 -431.86)"/><path class="cls-2" d="M844.92,904" transform="translate(-366 -431.86)"/><path class="cls-3" d="M733.86,905.37q-12.5-15.81-25.08-31.54a8.27,8.27,0,0,0-2.36-1.39c-.2-.33-.4-.66-.61-1a9.33,9.33,0,0,0-1-2.59c-2.05-2.74-4.18-5.41-6.38-8-2-2.39-4.13-4.68-6.2-7l-.94-.11c-.25-.63-.5-1.26-.74-1.89l-1-1.07-1.11-1.53-1-1.08-1.11-1.52L685,845.42l-.56-.48h0c0-.34,0-.68-.07-1h0c-2.36-3.15-4.65-6.35-7.09-9.43q-11.07-14-22.26-27.87c-1.52-1.89-3.31-3.57-5-5.34h0c-.89-2.46-2.06-4.68-4.68-5.72h0c.07-1.77-.84-2.59-2.54-2.66l-.68-1c-.14-.33-.29-.66-.43-1l0,0c-1.73-2.52-3.32-5.16-5.21-7.56-6.73-8.52-13.57-16.93-20.33-25.42-5.48-6.86-10.89-13.78-16.35-20.66C591.25,726.46,582.71,715.65,574,705c-2.53-3.11-5.46-5.89-8.2-8.83-.06-.3-.12-.59-.17-.89l-.9-1.17-.92-.1-1.1-1.53-1-1.07-.27-1.34c-.67-.71-1.34-1.43-2-2.14l-1-1.09a28.25,28.25,0,0,0-2.31-3.87,5.92,5.92,0,0,0-2.52,1.43,15.16,15.16,0,0,0-1.81,3c.13-.1.26-.18.39-.27-.13.09-.26.17-.39.27h0l-1,1.55-1.19,2-1.5,1.58-2.6,3.14c-.46.17-1.08.21-1.37.54q-2.87,3.17-5.61,6.45-8.7,10.43-17.36,20.89c-5.08,6.09-10.21,12.15-15.28,18.25s-10,12.28-15.14,18.37-10.17,12-15.21,18c-5.64,6.75-11.18,13.58-16.83,20.32-6.82,8.13-13.75,16.17-20.55,24.32-7.18,8.61-14.22,17.33-21.4,25.94-8.4,10.07-16.9,20-25.32,30.11q-10.22,12.19-20.34,24.47c-1.79,2.18-3.37,4.52-5.05,6.79H737C736,908.45,735,906.83,733.86,905.37Z" transform="translate(-366 -431.86)"/></svg>