<svg id="Layer_1" data-name="Layer 1" xmlns="http://www.w3.org/2000/svg" xmlns:xlink="http://www.w3.org/1999/xlink" viewBox="0 0 1632.92 478.14"><defs><style>.cls-1{fill:url(#linear-gradient);}.cls-2{fill:url(#linear-gradient-2);}.cls-3{fill:url(#linear-gradient-3);}</style><linearGradient id="linear-gradient" x1="1006.92" y1="684.93" x2="1790.92" y2="684.93" gradientUnits="userSpaceOnUse"><stop offset="0" stop-color="#959595" stop-opacity="0.2"/><stop offset="1" stop-opacity="0"/></linearGradient><linearGradient id="linear-gradient-2" x1="978.92" y1="918.04" x2="978.92" y2="918.04" gradientUnits="userSpaceOnUse"><stop offset="0" stop-color="#959595"/><stop offset="1" stop-opacity="0"/></linearGradient><linearGradient id="linear-gradient-3" x1="158" y1="705.78" x2="871" y2="705.78" xlink:href="#linear-gradient"/></defs><title>m5_ly1</title><path class="cls-1" d="M1777.92,907h0c-3.91-3-8-5.74-8.89-11.13L1748.66,870c-.29-.64-.57-1.27-.86-1.9h0c-2.53-2.46-5.32-4.71-7.54-7.42-3.62-4.41-6.88-9.13-10.29-13.73l-31.89-40.08c-1.77-1.53-3.85-2.81-5.26-4.61-1.19-1.5-2.35-3-3.51-4.54-3.48-4.56-6.87-9.2-10.31-13.79l-3.06-4-1.94-2-2.06-3-2.06-2.94h0q-3-4.47-6-8.92l0,0-3-3.94L1637.7,731c-5.6-6.42-11.32-12.75-16.74-19.32-1.8-2.19-2.83-5-4.21-7.54l-5-6c-4.55-.77-4.7-4.82-6-8l-1-1-2.83-2.14c-.57-.77-1.15-1.53-1.71-2.3-.21-.8-.42-1.6-.64-2.39l-2.65-1.32-1.64-2.34-2.16-2.82-3.93-5.1c-.12-.55-.23-1.09-.35-1.63l-1.93-1.09-3.12-3.89h0q-1.8-2.21-3.58-4.42l-1.17-1.78h0l-3.17-3.87-2-2-2.67-3.36a2.14,2.14,0,0,0-.2-.74l-4.13-4.9h0l-1.74-2.29q-1.19-1.83-2.35-3.66c-2.1.07-3.34-.7-3.76-2.25a5.28,5.28,0,0,1-.13-.84,6.23,6.23,0,0,1,0-1c-.37-1-.74-2-1.12-2.92l-2.73-2.19h0l-2.22-2.78L1541,610l-12.15-15.85c-4.44-4.81-9.13-9.43-13.26-14.49-3.51-4.3-6.39-9.11-9.54-13.69l-1.91-2.16c-2.68-2.77-5.63-5.33-8-8.36-3.61-4.65-6.81-9.61-10.18-14.44l-1.88-2.1c-3.61-3.81-7.4-7.47-10.77-11.48a24.38,24.38,0,0,1-1.49-2c-.35-.51-.69-1-1-1.57-1-1.6-1.9-3.26-2.9-4.85l-2.07-3.89c-.12-.27-.22-.54-.32-.81-1.25-.71-2.85-1.14-3.71-2.17-5.86-7.08-11.59-14.28-17.3-21.48-.33-.43-.18-1.24-.25-1.88-.54-1.15-1.1-2.31-1.65-3.46l-1.66-.32-2.08-3-.92-1-1.64-2.26-.57-1.58-1.8-1.12-1.68-2.28-3.17-4-1.8-2-1.23-1.92c-1.32-1.65-2.65-3.29-4-4.94l-1-1.1-3.38-4.66a4.56,4.56,0,0,1-.75-.18c-.86-1.08-1.71-2.17-2.55-3.25-.11-.28-.24-.56-.37-.83l-2.11-1.9-.15-1.84-1.71-1.3h0l-5.11.1-2.13,3-8,8.94h0a87,87,0,0,1-6.4,10A48.2,48.2,0,0,1,1384,473a37.57,37.57,0,0,1-6.69,5.31l-6.51,8.65h0l-1.91,3.08-2.51,1.28-1.3,2h0l-.21.32q-1.45,2.22-2.9,4.44l-2.08,3-4.52,3.31h0c-.44.64-.88,1.28-1.33,1.91-.91,1-1.83,2.05-2.75,3.08-.24.81-.49,1.62-.74,2.42h0c-.55.76-1.11,1.52-1.66,2.29l-4.48,3.3-.37.91c-.6.68-1.2,1.35-1.79,2,.59-.68,1.19-1.35,1.79-2-.6.68-1.2,1.35-1.79,2l-2.22,2.94-4,4.89-1,1.1-3.72,4.09c-.48.9-1,1.79-1.46,2.69l-3.09,3.92-2.74,2.26c-4.42,6.12-8.57,12.46-13.32,18.32q-18.42,22.75-37.35,45.09c-3,3.56-6.87,6.41-10.34,9.58l-1,1c1.25,3.75-1.29,4.45-4,5a7.1,7.1,0,0,1-.41.7c-1,1.32-1.91,2.65-2.87,4l-6.7,7.37-3.06,3.89-1,1-10.19,12.78c-.12.28-.24.56-.37.83l-3.68,4.09c-1.1,1.3-2.21,2.6-3.31,3.91h0l-1.58,2.1-2.85,2.3h0l-3,4q-8.19,9.92-16.39,19.81h0l-.81,1.94-2.53,1.42-1.27,1.88q-1.9,2-3.79,4.09,1.89-2.06,3.79-4.09-1.9,2-3.79,4.09c-.74,1-1.47,1.94-2.21,2.9l-1.8,2.09c-.46.91-.92,1.81-1.39,2.71h0l-2,3-2,2-3.06,4-2.92,2.07-1.38,2.64h0c-.57.77-1.13,1.55-1.69,2.32l-2.62,1.27-2.22,2.9c-.39.93-.78,1.87-1.18,2.81-.79,3.19-2,6-6,6l-6.89,8.09-4.09,4.95-1,1c-2.24,7.06-8,11.16-13.13,15.87l-1,1-2.86,3.16c-1.4,1.82-2.77,3.67-4.23,5.45-10,12.23-19.92,24.51-30,36.62-8.44,10.08-17.12,19.95-25.7,29.92-4.64,9.07-10.73,16.94-19,23-3,3.67-6,7.34-9.1,11q-13.41,16-26.84,32L1006.92,924h784l-4.08-6C1782.1,915.79,1779,912.25,1777.92,907Z" transform="translate(-158 -445.86)"/><path class="cls-2" d="M978.92,918" transform="translate(-158 -445.86)"/><path class="cls-3" d="M865,915.1q-24-30.39-48.21-60.61c-1-1.28-3-1.8-4.53-2.67l-1.16-1.91c-.61-1.68-.87-3.62-1.89-5q-5.92-7.87-12.27-15.44c-3.85-4.59-7.93-9-11.91-13.48l-1.81-.22c-.47-1.21-1-2.41-1.43-3.62l-1.85-2.06-2.14-2.94-1.86-2.07-2.13-2.93-2.66-2.28-1.06-.93h0c0-.65-.09-1.29-.13-1.94h0c-4.53-6-8.94-12.2-13.63-18.13Q735,752,713.52,725.34c-2.94-3.63-6.37-6.86-9.58-10.27h0c-1.71-4.72-3.95-9-9-11v0c.14-3.4-1.62-5-4.88-5.1l-1.3-2-.84-1.89,0,0c-3.33-4.86-6.39-9.93-10-14.54C665,664.18,651.8,648,638.8,631.7c-10.52-13.2-20.92-26.5-31.42-39.71-16.48-20.72-32.89-41.49-49.57-62.06-4.85-6-10.48-11.33-15.75-17l-.33-1.72L540,509l-1.76-.2-2.13-2.95c-.62-.68-1.24-1.36-1.85-2.05-.17-.86-.35-1.72-.52-2.58l-3.88-4.1c-.67-.7-1.34-1.41-2-2.11a57.09,57.09,0,0,0-4.44-7.44c-.19-.24-3.57,1.4-4.85,2.75-1.51,1.58-2.34,3.81-3.46,5.75a8,8,0,0,1,.74-.51,8,8,0,0,0-.74.51h0l-2,3q-1.15,1.88-2.29,3.76l-2.88,3-5,6c-.9.33-2.08.41-2.65,1q-5.5,6.09-10.77,12.4c-11.15,13.36-22.23,26.77-33.37,40.14-9.77,11.71-19.61,23.35-29.35,35.08s-19.32,23.6-29.1,35.31-19.56,23-29.24,34.54c-10.84,13-21.49,26.1-32.35,39.05-13.1,15.63-26.42,31.08-39.49,46.74-13.8,16.54-27.32,33.31-41.12,49.86-16.14,19.35-32.49,38.54-48.67,57.85q-19.64,23.45-39.08,47c-3.44,4.18-6.49,8.69-9.71,13H871C869,921,867.18,917.9,865,915.1Z" transform="translate(-158 -445.86)"/></svg>