<svg id="Layer_1" data-name="Layer 1" xmlns="http://www.w3.org/2000/svg" xmlns:xlink="http://www.w3.org/1999/xlink" viewBox="0 0 800.49 490"><defs><style>.cls-1{fill:url(#linear-gradient);}.cls-2{fill:url(#linear-gradient-2);}</style><linearGradient id="linear-gradient" x1="1399.35" y1="897.14" x2="1399.35" y2="897.14" gradientUnits="userSpaceOnUse"><stop offset="0" stop-color="#959595"/><stop offset="1" stop-opacity="0"/></linearGradient><linearGradient id="linear-gradient-2" x1="366" y1="665" x2="1166.49" y2="665" gradientUnits="userSpaceOnUse"><stop offset="0" stop-color="#959595" stop-opacity="0.2"/><stop offset="1" stop-opacity="0"/></linearGradient></defs><title>m5_ly4</title><path class="cls-1" d="M1399.35,897.14" transform="translate(-366 -420)"/><path class="cls-2" d="M1159.72,900q-27-34.12-54.12-68c-1.15-1.44-3.37-2-5.09-3l-1.31-2.15c-.68-1.88-1-4-2.11-5.58q-6.64-8.85-13.78-17.33c-4.32-5.16-8.91-10.11-13.38-15.14l-2-.25c-.54-1.35-1.07-2.71-1.61-4.06-.69-.77-1.38-1.55-2.08-2.32l-2.4-3.3c-.7-.77-1.39-1.54-2.08-2.32l-2.4-3.28-3-2.57-1.2-1h0l-.15-2.17h0c-5.09-6.79-10-13.7-15.3-20.35q-23.9-30.17-48-60.13c-3.29-4.08-7.15-7.7-10.75-11.53h0c-1.91-5.3-4.43-10.11-10.08-12.35l0,0c.17-3.81-1.81-5.58-5.47-5.73l-1.47-2.18L961,653l0,0c-3.74-5.46-7.17-11.15-11.26-16.32-14.5-18.38-29.27-36.54-43.86-54.84C894,567,882.32,552.08,870.52,537.25,852,514,833.59,490.66,814.88,467.58c-5.45-6.72-11.77-12.73-17.69-19.06-.13-.64-.25-1.28-.37-1.93-.65-.83-1.3-1.67-1.94-2.51l-2-.22-2.39-3.31-2.08-2.3c-.2-1-.39-1.93-.59-2.9l-4.34-4.6-2.27-2.37a65.79,65.79,0,0,0-5-8.35c-.22-.28-4,1.57-5.45,3.09-1.69,1.77-2.62,4.27-3.89,6.45.27-.2.55-.39.84-.58-.29.19-.57.38-.84.58h0l-2.27,3.35-2.57,4.23-3.24,3.41q-2.8,3.38-5.6,6.77c-1,.37-2.33.46-3,1.16q-6.18,6.86-12.1,13.93c-12.51,15-24.95,30.06-37.46,45.06-11,13.15-22,26.22-33,39.39s-21.7,26.5-32.67,39.64-22,25.8-32.83,38.79c-12.17,14.55-24.13,29.29-36.32,43.83-14.71,17.55-29.66,34.9-44.33,52.48-15.49,18.57-30.68,37.4-46.17,56-18.13,21.72-36.47,43.26-54.64,64.95q-22,26.31-43.88,52.81c-3.86,4.7-7.28,9.76-10.9,14.65h800.49C1164.25,906.66,1162.21,903.16,1159.72,900Z" transform="translate(-366 -420)"/></svg>