<svg id="Layer_1" data-name="Layer 1" xmlns="http://www.w3.org/2000/svg" xmlns:xlink="http://www.w3.org/1999/xlink" viewBox="0 0 371 227.1"><defs><style>.cls-1{fill:url(#linear-gradient);}.cls-2{fill:url(#linear-gradient-2);}</style><linearGradient id="linear-gradient" x1="844.92" y1="904.04" x2="844.92" y2="904.04" gradientUnits="userSpaceOnUse"><stop offset="0" stop-color="#959595"/><stop offset="1" stop-opacity="0"/></linearGradient><linearGradient id="linear-gradient-2" x1="366" y1="796.45" x2="737" y2="796.45" gradientUnits="userSpaceOnUse"><stop offset="0" stop-color="#959595" stop-opacity="0.2"/><stop offset="1" stop-opacity="0"/></linearGradient></defs><title>m5_ly3</title><path class="cls-1" d="M844.92,904" transform="translate(-366 -682.9)"/><path class="cls-2" d="M733.86,905.37q-12.5-15.81-25.08-31.54a8.27,8.27,0,0,0-2.36-1.39c-.2-.33-.4-.66-.61-1a9.33,9.33,0,0,0-1-2.59c-2.05-2.74-4.18-5.41-6.38-8-2-2.39-4.13-4.68-6.2-7l-.94-.11c-.25-.63-.5-1.26-.74-1.89l-1-1.07-1.11-1.53-1-1.08-1.11-1.52L685,845.42l-.56-.48h0c0-.34,0-.68-.07-1h0c-2.36-3.15-4.65-6.35-7.09-9.43q-11.07-14-22.26-27.87c-1.52-1.89-3.31-3.57-5-5.34h0c-.89-2.46-2.06-4.68-4.68-5.72h0c.07-1.77-.84-2.59-2.54-2.66l-.68-1c-.14-.33-.29-.66-.43-1l0,0c-1.73-2.52-3.32-5.16-5.21-7.56-6.73-8.52-13.57-16.93-20.33-25.42-5.48-6.86-10.89-13.78-16.35-20.66C591.25,726.46,582.71,715.65,574,705c-2.53-3.11-5.46-5.89-8.2-8.83-.06-.3-.12-.59-.17-.89l-.9-1.17-.92-.1-1.1-1.53-1-1.07-.27-1.34c-.67-.71-1.34-1.43-2-2.14l-1-1.09a28.25,28.25,0,0,0-2.31-3.87,5.92,5.92,0,0,0-2.52,1.43,15.16,15.16,0,0,0-1.81,3c.13-.1.26-.18.39-.27-.13.09-.26.17-.39.27h0l-1,1.55-1.19,2-1.5,1.58-2.6,3.14c-.46.17-1.08.21-1.37.54q-2.87,3.17-5.61,6.45-8.7,10.43-17.36,20.89c-5.08,6.09-10.21,12.15-15.28,18.25s-10,12.28-15.14,18.37-10.17,12-15.21,18c-5.64,6.75-11.18,13.58-16.83,20.32-6.82,8.13-13.75,16.17-20.55,24.32-7.18,8.61-14.22,17.33-21.4,25.94-8.4,10.07-16.9,20-25.32,30.11q-10.22,12.19-20.34,24.47c-1.79,2.18-3.37,4.52-5.05,6.79H737C736,908.45,735,906.83,733.86,905.37Z" transform="translate(-366 -682.9)"/></svg>