<svg id="Layer_1" data-name="Layer 1" xmlns="http://www.w3.org/2000/svg" xmlns:xlink="http://www.w3.org/1999/xlink" viewBox="0 0 1902.62 441.25"><defs><style>.cls-1{fill:url(#linear-gradient);}.cls-2{fill:url(#linear-gradient-2);}.cls-3{fill:url(#linear-gradient-3);}.cls-4{fill:url(#linear-gradient-4);}.cls-5{fill:url(#linear-gradient-5);}.cls-6{fill:url(#linear-gradient-6);}.cls-7{fill:url(#linear-gradient-7);}.cls-8{fill:url(#linear-gradient-8);}</style><linearGradient id="linear-gradient" x1="802.76" y1="-199.88" x2="1521.94" y2="-199.88" gradientTransform="matrix(1, 0, 0, -1, -366, 660)" gradientUnits="userSpaceOnUse"><stop offset="0.7" stop-color="#ffc15e" stop-opacity="0.2"/><stop offset="1" stop-opacity="0"/></linearGradient><linearGradient id="linear-gradient-2" x1="1521.94" y1="-369.15" x2="1688.07" y2="-369.15" gradientTransform="matrix(1, 0, 0, -1, -366, 660)" gradientUnits="userSpaceOnUse"><stop offset="0" stop-color="#ffaa3e" stop-opacity="0.4"/><stop offset="0.93" stop-color="#110b04" stop-opacity="0.03"/><stop offset="1" stop-opacity="0"/></linearGradient><linearGradient id="linear-gradient-3" x1="383.38" y1="-590.9" x2="683.87" y2="-590.9" gradientTransform="matrix(1, 0, 0, -1, -366, 397.1)" gradientUnits="userSpaceOnUse"><stop offset="0" stop-color="#959595" stop-opacity="0.2"/><stop offset="1" stop-opacity="0"/></linearGradient><linearGradient id="linear-gradient-4" x1="597.87" y1="-558.44" x2="1007.65" y2="-558.44" xlink:href="#linear-gradient-3"/><linearGradient id="linear-gradient-5" x1="1304.36" y1="-590.9" x2="1604.84" y2="-590.9" gradientTransform="matrix(1, 0, 0, -1, -366, 397.1)" gradientUnits="userSpaceOnUse"><stop offset="0" stop-color="#959595" stop-opacity="0.2"/><stop offset="1" stop-color="#ffc646" stop-opacity="0.4"/></linearGradient><linearGradient id="linear-gradient-6" x1="737.52" y1="-631.56" x2="905.2" y2="-631.56" xlink:href="#linear-gradient-3"/><linearGradient id="linear-gradient-7" x1="2096" y1="-648.65" x2="2237.53" y2="-648.65" xlink:href="#linear-gradient-3"/><linearGradient id="linear-gradient-8" x1="11" y1="1010.5" x2="127.67" y2="1010.5" gradientTransform="matrix(-1.26, 0, 0, 1, 1916.51, -639.75)" xlink:href="#linear-gradient-3"/></defs><title>wallpaper_m2</title><path class="cls-1" d="M1150,1071q-24.26-30.66-48.62-61.1c-1-1.29-3-1.79-4.58-2.69l-1.17-1.93c-.61-1.69-.9-3.6-1.9-5q-6-7.95-12.38-15.57c-3.88-4.63-8-9.08-12-13.6l-1.8-.22-1.44-3.65c-.62-.69-1.24-1.39-1.87-2.08l-2.16-3c-.63-.69-1.25-1.38-1.87-2.08l-2.15-3-2.7-2.31-1.08-.9h0l-.13-1.95h0c-4.57-6.1-9-12.31-13.75-18.28q-21.46-27.11-43.12-54c-3-3.67-6.43-6.92-9.66-10.36h0c-1.72-4.76-4-9.08-9.06-11.1h0c.16-3.42-1.62-5-4.91-5.14l-1.32-2-.85-2h0c-3.36-4.91-6.44-10-10.11-14.67-13-16.51-26.3-32.82-39.41-49.27-10.67-13.33-21.16-26.73-31.76-40.06-16.64-20.89-33.18-41.85-50-62.59-4.9-6-10.58-11.44-15.9-17.12l-.33-1.74c-.58-.74-1.17-1.5-1.74-2.25l-1.8-.2-2.15-3-1.86-2.07c-.18-.9-.36-1.74-.53-2.61l-3.9-4.13-2-2.13a59.32,59.32,0,0,0-4.5-7.5c-.19-.25-3.59,1.41-4.89,2.78-1.52,1.59-2.36,3.83-3.5,5.79l.76-.52-.76.52h0l-2,3-2.31,3.8-2.91,3.06-5,6.09c-.9.33-2.09.41-2.69,1q-5.55,6.17-10.87,12.51-16.86,20.22-33.66,40.49c-9.88,11.81-19.76,23.55-29.65,35.39s-19.49,23.8-29.35,35.61S658.74,812.53,649,824.2c-10.94,13.07-21.68,26.31-32.63,39.38-13.22,15.77-26.65,31.35-39.83,47.15C562.63,927.41,549,944.33,535.07,961c-16.29,19.51-32.77,38.87-49.09,58.35q-19.77,23.64-39.43,47.45c-3.46,4.22-6.54,8.77-9.79,13.16h719.18A104,104,0,0,0,1150,1071Z" transform="translate(-17.38 -639.75)"/><path class="cls-2" d="M1320.69,1077.92q-5.61-7.08-11.23-14.11a3.45,3.45,0,0,0-1.06-.62l-.27-.45a4.89,4.89,0,0,0-.44-1.16q-1.38-1.83-2.86-3.6c-.89-1.07-1.85-2.09-2.77-3.14l-.42,0-.33-.84-.44-.48-.49-.69-.43-.48-.5-.68-.63-.53-.24-.21h0l0-.45h0c-1-1.41-2.07-2.84-3.17-4.22q-5-6.27-10-12.48c-.69-.85-1.49-1.6-2.23-2.4h0a3.83,3.83,0,0,0-2.1-2.56h0c0-.79-.37-1.16-1.13-1.19l-.31-.45-.19-.47h0c-.78-1.13-1.49-2.31-2.34-3.39-3-3.81-6.07-7.58-9.1-11.38-2.47-3.08-4.89-6.17-7.34-9.25-3.84-4.83-7.66-9.67-11.55-14.46-1.13-1.4-2.44-2.64-3.67-4,0-.13,0-.26-.07-.4l-.41-.52-.41,0-.5-.69-.43-.48-.12-.6-.9-1-.47-.5a14.42,14.42,0,0,0-1-1.73,2.72,2.72,0,0,0-1.13.64,6.92,6.92,0,0,0-.81,1.34l.17-.12-.17.12h0l-.47.7-.53.87-.68.71-1.16,1.41c-.21.07-.48.09-.62.24-.86.95-1.69,1.91-2.51,2.89-2.6,3.11-5.18,6.24-7.78,9.35-2.28,2.73-4.56,5.44-6.85,8.17s-4.5,5.5-6.78,8.23-4.56,5.36-6.81,8c-2.52,3-5,6.08-7.54,9.1-3,3.64-6.15,7.24-9.2,10.89-3.21,3.85-6.36,7.76-9.58,11.62-3.76,4.51-7.57,9-11.34,13.48q-4.56,5.46-9.1,11c-.81,1-1.51,2-2.27,3h166.13A23.41,23.41,0,0,0,1320.69,1077.92Z" transform="translate(-17.38 -639.75)"/><path class="cls-3" d="M315.32,1076.15Q305.2,1063.34,295,1050.6a6.57,6.57,0,0,0-1.91-1.12c-.16-.27-.33-.54-.5-.81a7.15,7.15,0,0,0-.81-2.1q-2.49-3.33-5.16-6.48c-1.62-1.94-3.35-3.79-5-5.67l-.76-.09-.6-1.53-.81-.87-.9-1.24-.81-.87-.9-1.23-1.07-1-.46-.39h0a4.35,4.35,0,0,0-.05-.81h0c-1.92-2.55-3.77-5.14-5.75-7.64q-9-11.34-18-22.57c-1.23-1.53-2.68-2.89-4.05-4.33h0c-.72-2-1.67-3.79-3.79-4.63h0c.06-1.44-.68-2.1-2.06-2.16l-.55-.81-.35-.81h0c-1.4-2-2.69-4.18-4.22-6.12-5.45-6.9-11-13.71-16.46-20.59-4.44-5.56-8.83-11.16-13.25-16.74-6.92-8.76-13.84-17.52-20.9-26.14-2.05-2.52-4.42-4.78-6.64-7.16-.05-.24-.1-.48-.14-.72l-.73-1-.74-.08-.89-1.24-.81-.86-.22-1.09L174,900l-.81-.89a23.53,23.53,0,0,0-1.87-3.13,4.73,4.73,0,0,0-2,1.16,11.57,11.57,0,0,0-1.47,2.43,3.62,3.62,0,0,1,.32-.22,3.62,3.62,0,0,0-.32.22h0l-.81,1.25-1,1.62-1.22,1.28-2.11,2.55c-.37.14-.87.17-1.11.43q-2.32,2.58-4.54,5.23-7,8.44-14.06,16.92c-4.12,4.93-8.27,9.84-12.38,14.78s-8.1,10-12.26,14.88-8.24,9.73-12.32,14.59c-4.57,5.46-9.06,11-13.64,16.46-5.52,6.58-11.14,13.09-16.64,19.7-5.82,7-11.52,14-17.34,21-6.8,8.16-13.69,16.2-20.51,24.39q-8.28,9.87-16.47,19.82c-1.45,1.77-2.73,3.66-4.1,5.5H317.87A37.76,37.76,0,0,0,315.32,1076.15Z" transform="translate(-17.38 -639.75)"/><path class="cls-4" d="M638.18,1075.75q-13.81-17.46-27.7-34.84a9.14,9.14,0,0,0-2.61-1.53c-.22-.37-.44-.73-.68-1.11a10.15,10.15,0,0,0-1.1-2.86c-2.26-3-4.62-6-7.05-8.84-2.21-2.64-4.56-5.17-6.85-7.73l-1-.12c-.27-.7-.55-1.39-.81-2.09l-1.11-1.18-1.22-1.69-1.11-1.19-1.22-1.68-1.47-1.36-.62-.53h0a5.1,5.1,0,0,0-.08-1.11h0c-2.61-3.48-5.14-7-7.83-10.41Q563.45,982,551.09,966.69c-1.68-2.09-3.66-3.94-5.52-5.9h0c-1-2.72-2.28-5.17-5.17-6.32h0c.07-2-.93-2.86-2.81-2.94l-.75-1.1c-.16-.37-.32-.73-.48-1.11h0c-1.91-2.78-3.66-5.7-5.75-8.35-7.44-9.41-15-18.7-22.46-28.08-6-7.58-12-15.22-18.06-22.82-9.45-12-18.88-23.89-28.5-35.66-2.8-3.43-6-6.5-9.06-9.75-.07-.33-.13-.65-.19-1l-1-1.29-1-.11-1.21-1.69L448,839.4l-.3-1.48-2.21-2.36-1.1-1.21a31.68,31.68,0,0,0-2.55-4.27,6.48,6.48,0,0,0-2.79,1.58,16.34,16.34,0,0,0-2,3.31c.14-.11.28-.2.43-.3-.15.1-.29.19-.43.3h0L436,836.68l-1.31,2.21L433,840.64l-2.87,3.47c-.51.18-1.2.23-1.52.59q-3.17,3.51-6.19,7.13-9.62,11.52-19.18,23.07c-5.61,6.73-11.28,13.42-16.88,20.16s-11.05,13.57-16.72,20.3-11.24,13.25-16.81,19.88c-6.23,7.46-12.35,15-18.59,22.45-7.53,9-15.19,17.86-22.7,26.86-7.93,9.51-15.71,19.15-23.64,28.66-9.28,11.12-18.67,22.09-28,33.26q-11.28,13.47-22.47,27c-2,2.41-3.72,5-5.58,7.5H641.65A53.61,53.61,0,0,0,638.18,1075.75Z" transform="translate(-17.38 -639.75)"/><path class="cls-5" d="M1236.3,1076.15q-10.12-12.81-20.31-25.55a6.49,6.49,0,0,0-1.92-1.12c-.16-.27-.32-.54-.49-.81a7.44,7.44,0,0,0-.81-2.1c-1.66-2.22-3.39-4.38-5.17-6.48-1.62-1.94-3.34-3.79-5-5.67l-.76-.09c-.2-.51-.41-1-.6-1.53l-.81-.87-.9-1.24-.81-.87-.9-1.23-1.08-1-.45-.39h0a3.64,3.64,0,0,0-.06-.81h0c-1.91-2.55-3.76-5.14-5.74-7.64q-9-11.34-18-22.57c-1.23-1.53-2.68-2.89-4-4.33h0c-.72-2-1.67-3.79-3.79-4.63h0c.05-1.44-.68-2.1-2.06-2.16l-.55-.81c-.12-.26-.24-.53-.35-.81h0c-1.4-2-2.69-4.18-4.22-6.12-5.45-6.9-11-13.71-16.47-20.59-4.44-5.56-8.82-11.16-13.24-16.74-6.93-8.76-13.85-17.52-20.9-26.14-2-2.52-4.42-4.78-6.64-7.16-.05-.24-.1-.48-.14-.72l-.73-1-.75-.08-.89-1.24-.81-.86-.22-1.09L1095,900l-.81-.89a21.57,21.57,0,0,0-1.87-3.13,4.85,4.85,0,0,0-2,1.16,12,12,0,0,0-1.46,2.43l.31-.22-.31.22h0l-.81,1.25-1,1.62-1.21,1.28-2.11,2.55c-.37.14-.87.17-1.11.43q-2.32,2.58-4.54,5.23-7,8.44-14.07,16.92c-4.11,4.93-8.27,9.84-12.37,14.78s-8.1,10-12.27,14.88-8.24,9.73-12.32,14.59c-4.57,5.46-9,11-13.63,16.46-5.53,6.58-11.14,13.09-16.65,19.7-5.81,7-11.52,14-17.33,21-6.81,8.16-13.69,16.2-20.51,24.39q-8.28,9.87-16.48,19.82c-1.45,1.77-2.73,3.66-4.09,5.5h300.48A39.44,39.44,0,0,0,1236.3,1076.15Z" transform="translate(-17.38 -639.75)"/><path class="cls-6" d="M537.79,1077.85q-5.65-7.14-11.34-14.25a3.73,3.73,0,0,0-1.07-.63l-.27-.45a4.45,4.45,0,0,0-.46-1.18c-.92-1.23-1.89-2.44-2.88-3.61s-1.87-2.12-2.8-3.17l-.43,0-.33-.85-.45-.48-.51-.7-.45-.48-.5-.69-.6-.56-.25-.21h0a1.75,1.75,0,0,0,0-.46h0c-1.06-1.42-2.1-2.87-3.2-4.26q-5-6.33-10.06-12.6c-.69-.85-1.5-1.61-2.26-2.41h0a3.89,3.89,0,0,0-2.12-2.59h0c0-.8-.38-1.17-1.15-1.2l-.3-.45c-.07-.15-.14-.3-.2-.45h0c-.78-1.14-1.5-2.34-2.35-3.42-3-3.85-6.14-7.65-9.19-11.49-2.48-3.1-4.93-6.23-7.39-9.34-3.87-4.89-7.73-9.78-11.67-14.59-1.14-1.41-2.47-2.66-3.7-4,0-.14-.06-.27-.08-.41l-.41-.52-.41-.05-.5-.69-.45-.48-.13-.61-.9-1-.45-.49a11.93,11.93,0,0,0-1.05-1.75,2.68,2.68,0,0,0-1.13.65,6.67,6.67,0,0,0-.82,1.35l.17-.12-.17.12h0l-.45.7-.54.91-.68.71-1.18,1.42c-.2.08-.48.1-.62.24-.86,1-1.71,1.93-2.53,2.92q-3.93,4.71-7.85,9.44c-2.29,2.76-4.61,5.5-6.91,8.25s-4.52,5.55-6.84,8.31-4.6,5.42-6.88,8.13c-2.54,3-5.05,6.14-7.6,9.19-3.09,3.67-6.22,7.31-9.29,11-3.25,3.89-6.43,7.84-9.68,11.73-3.79,4.55-7.64,9-11.44,13.61q-4.62,5.51-9.2,11.06c-.8,1-1.52,2-2.28,3.07H539.2A22.15,22.15,0,0,0,537.79,1077.85Z" transform="translate(-17.38 -639.75)"/><path class="cls-7" d="M1870.33,1079.5q-4.77-5-9.57-9.92a3.14,3.14,0,0,0-.9-.44l-.23-.32a2.85,2.85,0,0,0-.38-.81c-.78-.86-1.6-1.7-2.44-2.52s-1.57-1.47-2.36-2.2l-.36,0c-.1-.2-.19-.39-.28-.59l-.38-.34-.43-.48-.38-.34-.42-.48-.51-.39-.21-.15h0a1.09,1.09,0,0,0,0-.31h0c-.9-1-1.77-2-2.71-3q-4.21-4.41-8.49-8.77c-.58-.6-1.26-1.13-1.91-1.68h0a2.84,2.84,0,0,0-1.78-1.8h0c0-.56-.32-.82-1-.84l-.26-.32c0-.1-.11-.2-.16-.31h0c-.66-.79-1.27-1.62-2-2.38-2.57-2.68-5.18-5.33-7.76-8-2.09-2.16-4.15-4.34-6.24-6.5-3.26-3.41-6.52-6.81-9.84-10.17-1-1-2.08-1.85-3.13-2.78l-.06-.28-.35-.36-.35,0-.42-.49-.38-.33-.1-.43-.77-.67-.38-.34c-.25-.43-2.35-.16-2.53.17l.15-.08-.15.08h0l-.38.49-.46.63-.57.5-1,1c-.18,0-.41.06-.52.17-.73.66-1.45,1.34-2.14,2l-6.63,6.57c-1.93,1.92-3.89,3.83-5.83,5.75s-3.81,3.86-5.77,5.78l-5.81,5.67c-2.15,2.12-4.26,4.27-6.42,6.39-2.6,2.56-5.24,5.09-7.84,7.66s-5.42,5.45-8.16,8.16c-3.21,3.17-6.45,6.3-9.66,9.48q-3.9,3.84-7.76,7.7c-.69.69-1.29,1.43-1.93,2.14h141.53A13.6,13.6,0,0,0,1870.33,1079.5Z" transform="translate(-17.38 -639.75)"/><polyline class="cls-8" points="1902.62 439.23 1902.62 300.24 1755.3 441.25 1902.62 441.25"/></svg>