<svg id="Layer_1" data-name="Layer 1" xmlns="http://www.w3.org/2000/svg" viewBox="0 0 685.49 457.64"><defs><style>.cls-1{fill:#fff;}</style></defs><title>code</title><path class="cls-1" d="M732.57,581c1.36,1.43,2.06,2.19,2.78,2.92q33.31,33.48,66.62,66.95,30.88,31,61.74,62.08,16.92,17,33.83,34.06c2.12,2.14,4.43,4.1,6.41,6.34a33.89,33.89,0,0,1,6.73,13.09c2.06,6.87,1.6,13.49-.45,20.21-2.7,8.89-8.43,15.27-16.28,19.88a22,22,0,0,1-5.44,2.09c-3.87,1.06-7.7,2.64-11.8,2.22a55.52,55.52,0,0,1-14.73-3.4c-4.47-1.75-8-4.67-11.29-8q-33.36-33.65-66.82-67.19Q764.75,713,745.65,693.76q-37.36-37.56-74.74-75.1c-4.25-4.27-8.53-8.52-12.65-12.91a31.81,31.81,0,0,1-7.43-12,55.49,55.49,0,0,1-2.34-10.8,30.8,30.8,0,0,1,.63-8,32.08,32.08,0,0,1,12.18-21.26,24.77,24.77,0,0,0,2.05-1.92l57.71-57.35,52.82-52.49L808,408.11l40-39.72c2.2-2.19,4.28-4.52,6.56-6.63,5.06-4.69,11.37-6.55,18-7.86a21.07,21.07,0,0,1,11.33.72,25.69,25.69,0,0,0,3.3.66c6.72,1.38,11.83,5.4,16.27,10.28a26.63,26.63,0,0,1,7,14.23,26.59,26.59,0,0,0,1.18,5.08c1.16,3.34.23,6.56-.43,9.77-.46,2.28-1.27,4.5-1.91,6.75a26.41,26.41,0,0,1-6.89,11.87q-25.46,25.25-50.86,50.53Q834.12,481,816.75,498.22,790.2,524.57,763.68,551q-14,13.93-28.11,27.81A29.52,29.52,0,0,1,732.57,581Z" transform="translate(-648.4 -353.29)"/><path class="cls-1" d="M1250.26,581.5c-.59-.66-1-1.14-1.4-1.57-8.43-8.46-16.91-16.87-25.29-25.38q-27.22-27.63-54.37-55.34-18.57-18.87-37.23-37.67-24-24.27-47.91-48.55a30.35,30.35,0,0,1-8.07-15.44c-.82-3.89-1.64-7.72-1.24-11.71,1-10.27,5.23-18.71,13.55-25.21,6-4.65,12.9-5.89,19.92-7.24a7.68,7.68,0,0,1,3.09.14c4.13,1,8.41,1.58,12.29,3.17a32.7,32.7,0,0,1,11.56,8.2c3.08,3.34,6.17,6.69,9.35,9.94q13.07,13.38,26.21,26.68,10.52,10.64,21.07,21.23,19.85,20,39.69,40c9.77,9.89,19.46,19.86,29.23,29.77q16.29,16.53,32.65,33,7.89,8,15.83,15.85c4.92,4.92,10,9.7,14.75,14.75q12.84,13.62,9.13,32.1a36.19,36.19,0,0,1-7,15.42,58.47,58.47,0,0,1-4.4,4.78l-38.73,39.67-34.13,35q-15,15.38-30,30.74-16.52,16.95-33,33.91-15.23,15.6-30.47,31.16c-7.61,7.81-15.17,15.68-22.79,23.48a20.63,20.63,0,0,1-7.91,4.79c-5.66,2.06-11.36,3.94-17.49,3.6-1.71-.1-3.37-.86-5.08-1-6.28-.67-11.39-3.83-15.89-7.84-5-4.45-8.89-9.7-10.2-16.59-.83-4.4-1.76-8.68-1.21-13.24a35.11,35.11,0,0,1,12.23-23.25c3.89-3.39,7.29-7.36,10.9-11.07q21-21.54,41.91-43.08c4.13-4.23,8.36-8.37,12.49-12.59q19.61-20,39.17-40.11l52-53.28C1245.63,586.43,1247.82,584.07,1250.26,581.5Z" transform="translate(-648.4 -353.29)"/></svg>