<svg id="Layer_1" data-name="Layer 1" xmlns="http://www.w3.org/2000/svg" xmlns:xlink="http://www.w3.org/1999/xlink" viewBox="0 0 1436 936"><defs><style>.cls-1{fill:#d1d1d1;}.cls-2{fill:url(#linear-gradient);}</style><linearGradient id="linear-gradient" x1="570" y1="274.14" x2="542" y2="1058.14" gradientUnits="userSpaceOnUse"><stop offset="0" stop-color="#fff" stop-opacity="0.6"/><stop offset="0" stop-color="#b4b6b8" stop-opacity="0.09"/><stop offset="0" stop-color="#fcfcfd" stop-opacity="0.8"/><stop offset="0.11" stop-color="#f9f9fa" stop-opacity="0.78"/><stop offset="0.25" stop-color="#f2f2f3" stop-opacity="0.71"/><stop offset="0.42" stop-color="#e5e5e6" stop-opacity="0.6"/><stop offset="0.59" stop-color="#d4d4d5" stop-opacity="0.45"/><stop offset="0.78" stop-color="#bebebe" stop-opacity="0.26"/><stop offset="0.98" stop-color="#a3a3a3" stop-opacity="0.03"/><stop offset="1" stop-color="#a0a0a0" stop-opacity="0"/></linearGradient></defs><title>default_class_picture</title><rect class="cls-1" width="1436" height="936"/><path class="cls-2" d="M531.57,387.6H580a13.54,13.54,0,0,0,3.33,1.22c45.51,4.25,88.57,17,127.16,41.46,107.14,68,157,165.94,146.58,292.35-6,72.69-37.41,135-90.07,185.6C700.69,971.89,621,999.68,529.29,993c-4.16-.3-5.4-1.83-5.49-5.78-.23-10.18-1-20.36-1.24-30.54-.95-48.59,2.3-96.81,13.71-144.2,6.23-25.84,19.8-45.9,46.34-54.67,17.93-5.92,36.29-5.62,54.86-4.1,12.86,1,25.91,1.88,38.72.89,22.76-1.77,37.77-15.24,44.62-36.3,11-34,2.61-65.48-20.82-90.52-29.45-31.5-66.89-50.47-110.37-55.77-7.3-.89-14.68-1.08-22.2-1.6-.12-6.65,1.13-10.6,8.89-11.91,13.47-2.27,22.49-14.24,22.78-27.73a29.56,29.56,0,0,0-21.33-29.16c-12.1-3.72-25.93,1.38-32.93,12.12-7.35,11.29-6.57,26.53,2.79,35.93,3.93,3.94,5.08,7.32,2.83,12.15a12.48,12.48,0,0,0-1.09,3.65c-.67,5.49-3.63,7.73-9.19,8.36a148.24,148.24,0,0,0-20.55,4.28c-8.38,2.17-8.2,2.31-11.59-5.64-2.6-6.07-4.36-11.16-.56-18.27,5.62-10.48-1.39-23.74-12.8-27.78a21.69,21.69,0,1,0-14.2,41c4.95,1.76,13.17,14,12.77,19.25a3.87,3.87,0,0,1-1.53,2.53c-9.72,6.7-19.5,13.3-29.36,20-27.78-18.07-65.85-21.75-89.32-8.07-16.24,9.47-28,22.63-32.94,41.15a12.22,12.22,0,0,0,2.1,1.14c36.76,6.52,69.78-2.95,100-23.75,4.16-2.86,7.9-5.42,13-2.34-5.76,8.27-11.21,16.32-17,24.13-.83,1.13-3.2,1.48-4.88,1.56-7.81.36-15.89-.68-23.41.93-25.23,5.42-47.8,15.45-60,40.38-5.58,11.39-8.65,23.31-6.4,36.92,32-5.53,56.44-22.61,77.77-46.18.15,1.47.42,2.13.25,2.65-15.43,45.26-20.28,91.94-17.36,139.4,2.76,44.92,6.64,89.76,10,134.64.15,2.05.3,4.11.45,6.14-1,.13-1.49.36-1.82.21a37.63,37.63,0,0,1-4-1.94c-81.91-47.33-132.58-117.17-151.2-210-2-9.87-3.42-19.84-5.11-29.76v-51c1.66-9.71,3.3-19.42,5-29.13,21.21-122.35,121.33-222.5,243.63-243.67C511.25,390.84,521.42,389.26,531.57,387.6Z" transform="translate(-242 -58)"/></svg>