<svg id="Layer_1" data-name="Layer 1" xmlns="http://www.w3.org/2000/svg" viewBox="0 0 419.65 535.91"><defs><style>.cls-1{fill:#fff;}</style></defs><title>doc</title><path class="cls-1" d="M679.25,507.29c0-25.16,0-49.15,0-73.14,0-3.18-.14-6.35-.18-9.53-.17-13,11.67-23.14,23.2-23.31,11-.17,21,7.52,23.81,17.48a32.86,32.86,0,0,1,1.37,9.29c-.06,13.58-.06,27.17-.1,40.75q-.29,85.7-.58,171.39-.21,63.15-.45,126.29c0,4.69-.27,4.52,4.62,4.53l19.08.07,172.54.58,121.67.41c4.5,0,4.26.22,4.27-4.23q.11-59.55.23-119.09.26-97.54.59-195.08c0-6.26.26-12.52.29-18.78a69.15,69.15,0,0,0-.44-7.47c-1.32-12.14,7.8-24.23,19.84-25.86,13.9-1.87,23.64,6.19,27.13,17a30.22,30.22,0,0,1,1.38,9.59q-.12,32.5-.16,65-.3,100.44-.6,200.87-.16,50.87-.42,101.73c0,1.63.11,3.26-1,4.68a4.8,4.8,0,0,0-.63,1.9,23.89,23.89,0,0,1-27.23,17.84,22.5,22.5,0,0,0-4-.19q-64.17-.13-128.33-.26-92.49-.25-185-.6c-13.68,0-27.36-.2-41-.3a19.85,19.85,0,0,0-3.45.17c-9.87,1.82-20.75-3.64-25.37-13.57a27.66,27.66,0,0,1-2.31-13.51c.15-2.79.19-5.58.2-8.38q.3-94.78.6-189.58C678.84,564.69,679.08,535.41,679.25,507.29Z" transform="translate(-677.87 -284.66)"/><path class="cls-1" d="M798.27,284.93c30.83,0,61.66-.07,92.49,0q89,.22,178,.58c2.69,0,5.58-.34,8,.48,5.08,1.69,10.07,3.78,13.73,8.07,5,5.85,6.68,12.64,6.12,20.15-.15,2-.37,4-.37,6q0,23.13,0,46.24a24,24,0,0,1-46.27,9.4,29.47,29.47,0,0,1-2.18-11.76c.25-8.56.16-17.14.22-25.71,0-.68,0-1.35,0-2,0-3-.17-3.13-3-3.18h-.87q-82.23-.12-164.46-.27-74.57-.18-149.12-.48c-5.24,0-4.71-.05-4.72,4.69,0,7.13-.1,14.26,0,21.39.06,3.28.24,6.52-.58,9.74a24,24,0,0,1-46.25.59,29.48,29.48,0,0,1-1.17-8.77c.07-16.66.28-33.33.07-50A25.49,25.49,0,0,1,682,296.3c4.61-7.65,11.48-11.65,20.57-11.64q47.83,0,95.67,0Z" transform="translate(-677.87 -284.66)"/><path class="cls-1" d="M803.23,682.24l165.84.35c10.93-1.07,21.9-.6,32.85-.66,8.26,0,14.91,3.5,20,9.74,11.36,14.08,3.17,35.2-14.66,38.19-7.27,1.22-14.58.87-21.89.73-1.45,0-2.89-.18-4.33-.18q-84.66-.15-169.31-.3c-6.36,0-12.71-.25-19.06-.26-2.78,0-5.56.24-8.33.46a24.07,24.07,0,0,1-26.14-22.69,24.62,24.62,0,0,1,17.31-24.2,33.23,33.23,0,0,1,9.86-1.42c6,.07,11.94,0,17.91,0Z" transform="translate(-677.87 -284.66)"/><path class="cls-1" d="M936,645.72c-21.29,0-42.59,0-63.88,0-27.65-.07-55.29-.23-82.94-.33a29.71,29.71,0,0,0-4.33.15,23.88,23.88,0,0,1-10.47-46.35,32.32,32.32,0,0,1,10.94-1.76c34,.16,68,.18,102,.29,27.16.08,54.33.51,81.49.2,11.35-.13,22.7-.19,34-.55,4.12-.14,7.5,1.46,10.9,3.07,9.22,4.36,14.75,15.19,13,24.89-2,11-10.14,18.91-20.9,20.1A83.26,83.26,0,0,1,997,646q-30.5.06-61,0Z" transform="translate(-677.87 -284.66)"/><path class="cls-1" d="M868.63,508.57c28.51,0,57,.09,85.53-.08,4.92,0,8.91,2,13,4.07a20.3,20.3,0,0,1,8.62,8.71c4.67,8.68,4.41,17.32-1.2,25.37s-13.78,11.34-23.65,9.93a22.38,22.38,0,0,0-3.17-.18q-16.47,0-32.94,0c-1.53,0-3,.33-4.59.37-2.3,0-4.6,0-6.91,0-1.34,0-2.67-.32-4-.32q-55-.1-110.09-.16c-2.7,0-5.39.1-8.09.15-11.29.18-22.15-9.87-22.91-22.07a24.36,24.36,0,0,1,17.6-24.81,28.18,28.18,0,0,1,7.61-1.11q42.61,0,85.24,0Z" transform="translate(-677.87 -284.66)"/><path class="cls-1" d="M814.78,426.55c10.21,0,20.41,0,30.62,0,19.93.09,39.86.38,59.78.23a26.34,26.34,0,0,1,13.34,3.68,23.79,23.79,0,0,1-9,44.41c-1.71.13-3.44.07-5.16,0s-3.66-.16-5.48-.17c-14-.06-27.93-.07-41.89-.14-21.37-.1-42.74-.25-64.11-.32-3.26,0-6.52.35-9.79.45a24,24,0,0,1-8.72-46.63,31.1,31.1,0,0,1,11-1.79c9.82.15,19.64.05,29.46.05Z" transform="translate(-677.87 -284.66)"/></svg>