<svg id="Layer_1" data-name="Layer 1" xmlns="http://www.w3.org/2000/svg" viewBox="0 0 550.2 555.29"><defs><style>.cls-1{fill:#fff;}</style></defs><title>excel</title><path class="cls-1" d="M833.65,534.05C827.75,528,821.88,522,816,516c-2.56-2.64-5-5.37-7.54-8q-14.62-15.39-29.25-30.77-16.57-17.46-33.15-34.93c-6.27-6.59-12.63-13.11-18.9-19.7q-22.07-23.17-44.1-46.39c-7.49-7.87-15.05-15.69-22.56-23.55q-13.71-14.31-27.38-28.64a5.63,5.63,0,0,1-1.41-2c-1.24-3.95-2.58-7.88-3.47-11.91a33.67,33.67,0,0,1,1.92-21.2,35.26,35.26,0,0,1,19.88-19.42,42.63,42.63,0,0,1,8.6-2,31.27,31.27,0,0,1,12.43.42,36.1,36.1,0,0,1,19.53,11.92c3.56,4.1,7.17,8.16,10.9,12.11q17,18,34.06,35.82c4,4.19,8.21,8.2,12.23,12.38,2.83,2.95,5.45,6.11,8.25,9.09,4.13,4.41,8.32,8.74,12.48,13.11q24,25.19,47.92,50.35c6.23,6.54,12.39,13.14,18.8,19.49,12.08,12,23.28,24.81,35.18,37,6.95,7.1,13.73,14.36,20.59,21.55q14.21,14.9,28.41,29.82c5.94,6.22,12,12.37,17.87,18.62,7.32,7.74,14.51,15.59,21.85,23.31,5.86,6.15,11.88,12.14,17.77,18.26,4.84,5,9.57,10.14,14.41,15.16,1.7,1.77,3.66,3.3,5.34,5.09,6.17,6.57,12.22,13.26,18.42,19.8,5.85,6.17,11.87,12.18,17.75,18.32,4.46,4.65,8.81,9.43,13.24,14.11,5.78,6.11,11.6,12.18,17.39,18.28q16.29,17.17,32.57,34.36,6.67,7,13.39,14,16.9,17.68,33.82,35.35c2.34,2.43,5,4.57,7.27,7.05A31.4,31.4,0,0,1,1158,777.5a29.18,29.18,0,0,1,.75,7.2c-.59,14-6.24,25.1-18.91,31.9a35.18,35.18,0,0,1-24.12,3.57c-3.71-.75-7.19-2.41-10.7-3.91-4.1-1.76-6.89-4.8-9.8-7.91-3.84-4.12-7.94-8-11.82-12.08-6.92-7.27-13.75-14.62-20.63-21.92-4.65-4.92-9.34-9.81-14-14.71l-42.43-44.55-19.54-20.48c-12.11-12.7-24.17-25.44-36.32-38.09-7.17-7.45-14.53-14.72-21.7-22.17-6.59-6.86-13-13.86-19.53-20.78q-8.22-8.73-16.48-17.43c-2.47-2.61-5-5.16-7.5-7.73-.64-.64-1.33-1.23-2.1-1.95-3.62,3.72-7.15,7.27-10.61,10.9q-10.4,10.9-20.73,21.88Q838.73,633.1,825.62,647c-4.51,4.77-9.06,9.5-13.6,14.25q-16.8,17.58-33.6,35.16-12.85,13.46-25.7,26.94l-42.21,44.37-24,25.19c-6.23,6.54-12.5,13-18.7,19.59a10.41,10.41,0,0,1-4.64,2.83c-3,.94-5.87,2.16-8.8,3.26-6.3,2.37-12.63,1.69-18.94.14-10.92-2.66-18.29-9.79-23.36-19.39-1.58-3-2.12-6.59-2.8-10a27.14,27.14,0,0,1-.62-7.92,53.51,53.51,0,0,1,2.13-8.51c1.71-6.22,5.51-11.07,10.08-15.45,3.92-3.75,7.83-7.52,11.61-11.42,5.36-5.52,10.59-11.17,15.89-16.74L691.48,684l24.41-25.62q21.32-22.41,42.62-44.84c3.8-4,7.37-8.26,11-12.4.47-.53,1-1.06,1.46-1.58,7-7.16,14.12-14.28,21.11-21.49,6.19-6.39,12.29-12.87,18.42-19.32Q821.88,546.9,833.17,535A6.38,6.38,0,0,0,833.65,534.05Z" transform="translate(-608.59 -265.62)"/><path class="cls-1" d="M1102.76,265.62c6.19.32,12.43,1,17.89,4,7.09,3.92,12.8,9.28,16.06,17.13a43.11,43.11,0,0,1,3.29,12.62c.42,4.58-.65,9.13-2,13.57-.85,2.76-2.51,5.21-2.88,8.18-.14,1.05-1.26,2.05-2.09,2.93q-11.57,12.13-23.18,24.23c-5.4,5.63-10.83,11.22-16.2,16.88q-18.75,19.75-37.45,39.56c-4.94,5.22-10,10.36-14.91,15.56-7.42,7.8-14.79,15.64-22.23,23.42-6.52,6.82-13.15,13.52-19.64,20.35C989,475,978.67,486,968.31,496.92c-.35.38-.72.74-1.08,1.1-4.13,4.11-8.39,4-12.37-.34q-15.24-16.46-30.53-32.86c-2.17-2.33-4.18-4.8-6.43-7a8.45,8.45,0,0,1-.08-11.84c5.31-5.26,10.41-10.73,15.57-16.14q18.71-19.59,37.37-39.21,12.53-13.15,25-26.31c10-10.5,19.84-21,29.8-31.54,6-6.32,12.12-12.54,18.14-18.84q11.91-12.47,23.75-25c3.83-4.08,7.47-8.36,11.28-12.47,5.49-5.93,12.47-9.1,20.3-10.57A30,30,0,0,1,1102.76,265.62Z" transform="translate(-608.59 -265.62)"/></svg>