<svg id="Layer_1" data-name="Layer 1" xmlns="http://www.w3.org/2000/svg" viewBox="0 0 593.84 664.62"><defs><style>.cls-1{fill:#fff;}</style></defs><title>music</title><path class="cls-1" d="M1236.69,462.62c-2.14-2.61-4.11-5.57-7.59-7-9.39-3.93-18.68-8.11-28-12.17-16.26-7.09-32.51-14.21-48.82-21.21-2.74-1.17-3.94-2.64-3.88-5.82.22-10.47.07-20.95.1-31.43,0-1.26-.32-2.61.5-3.79,1.28-.37,2.25.42,3.29.87,5.74,2.47,11.5,4.9,17.2,7.48,10.45,4.74,21.23,8.75,31.4,14.14a28.13,28.13,0,0,0,12.17,3.09,30.22,30.22,0,0,0,28.31-17.66,30.78,30.78,0,0,0-5.22-33c-3.14-3.52-6.51-6.45-11.1-8.08-4.92-1.74-9.62-4.12-14.42-6.21q-39.37-17.2-78.76-34.39-45.79-20-91.6-39.89-39.19-17.08-78.35-34.23c-31-13.63-62.33-26.59-93-41-18.58-8.72-38.22,3.62-41.76,20.37-1.08,5.11-.55,10.14-.55,15.2q0,137.52,0,275c0,1.57-1.46,5-1.69,4.86-.94-.41-52.27-16.78-78.7-11.79-26.82,5.06-49.43,18-67,38.79-23.25,27.4-32.56,59.19-27.39,94.94a112.33,112.33,0,0,0,27.8,60.1c25.28,28.2,57,41.76,95,40.21a112.79,112.79,0,0,0,54.93-16.52c24.8-15.1,42.06-36.34,51.32-63.95a121.25,121.25,0,0,0,6.1-39q-.17-116.57-.05-233.13c0-5.28.15-5.39,5-3.27q21.8,9.48,43.58,19l71.18,31q38.59,16.82,77.23,33.56c3.19,1.38,4.55,3.06,4.54,6.78q-.21,81.42-.1,162.84c0,1,0,2-.06,3-.1,1.39-.87,1.74-2.08,1.16-.79-.38-1.53-.85-2.31-1.24a123,123,0,0,0-53.33-13,109,109,0,0,0-23.8,2.49C979.4,625.4,956.6,638.77,939,660.15c-23.42,28.47-31.84,61.36-25.18,97.62,6.11,33.35,23.91,59.39,52.38,77.64,25.49,16.35,53.48,21.89,83.49,16.91A114.47,114.47,0,0,0,1110,822.91c25.6-23.72,38.25-53.5,38.39-88.18.3-80.77.09-161.53.11-242.3,0-1.85-.4-3.76.43-5.53,1.16-.38,2,.27,2.93.66,3.47,1.51,6.93,3.05,10.38,4.58,13,5.79,26.3,11,39,17.45a25.78,25.78,0,0,0,11.78,2.85c12.73-.09,22.61-5.4,28-17.17C1246.44,483.65,1244.76,472.51,1236.69,462.62ZM1084.3,387.5a12.86,12.86,0,0,1-.48,4.85c-6.15-2-11.6-4.73-17.17-7.14q-50.21-21.78-100.36-43.71c-26.65-11.62-53.27-23.32-79.95-34.86-2.52-1.09-3.57-2.37-3.54-5.13.13-10.62.05-21.24.05-31.86,0-.44,0-.87,0-1.31.22-2.66.73-3,3.33-1.94,5.36,2.26,10.66,4.65,16,7q52.78,23,105.57,45.95c24,10.46,47.93,21,72,31.36,3.45,1.48,4.77,3.35,4.67,7.14C1084.14,367.71,1084.32,377.6,1084.3,387.5Z" transform="translate(-650.33 -189.46)"/><path class="cls-1" d="M824.09,507.55" transform="translate(-650.33 -189.46)"/><path class="cls-1" d="M826.46,503.73" transform="translate(-650.33 -189.46)"/><path class="cls-1" d="M816.58,505.29" transform="translate(-650.33 -189.46)"/></svg>