<svg id="Layer_1" data-name="Layer 1" xmlns="http://www.w3.org/2000/svg" viewBox="0 0 642.93 540.72"><defs><style>.cls-1{fill:#fffefe;}.cls-2{fill:#fffdfc;}.cls-3{fill:#fffdfd;}</style></defs><title>pdf</title><path class="cls-1" d="M1222.7,322.76v14.15a21.79,21.79,0,0,0,2.34.24c3.72,0,7.44-.14,11.14.09a23.83,23.83,0,0,1,6.8,1.37c3.1,1.17,4.45,3.74,4.34,7.07a6.29,6.29,0,0,1-4.53,6.25,25.92,25.92,0,0,1-6.83,1.21c-4.33.18-8.67.05-13.26.05-.08,1.13-.2,2.05-.2,3,0,5.62.08,11.25-.06,16.87a25.16,25.16,0,0,1-1,6.87c-1.11,3.53-3.81,5.18-7.54,5.14-3.52-.05-6.13-1.73-7.23-5.14a21,21,0,0,1-1-6.24q-.12-27.71,0-55.4c0-8.43,3.21-11.53,11.6-11.58,6.8-.05,13.59-.12,20.38.05a24.13,24.13,0,0,1,7.14,1.3c3.17,1.09,4.54,3.59,4.5,6.94s-1.61,5.58-4.6,6.55a27.86,27.86,0,0,1-7.16,1.19c-3.81.19-7.64.05-11.46.05Z" transform="translate(-623.14 -272.51)"/><path class="cls-1" d="M1264.75,658.72c-3.67-25-13.83-47.33-29.18-67.33a70.2,70.2,0,0,0-6.41-7.46,114.43,114.43,0,0,0-21.08-15.84A110.41,110.41,0,0,0,1175.79,555c-12.41-2.92-25-3.34-37.67-2.47-10.38.71-20.74,1.7-31.11,2.55-11.53.93-23.07,1.83-34.6,2.77q-22.38,1.82-44.76,3.67c-8.78.73-17.56,1.51-26.34,2.25-6.66.56-13.32,1.08-20.2,1.64-.45-.8-.81-1.33-1.07-1.9q-4.71-10.6-9.39-21.23-9.84-22.42-19.67-44.86c-3.45-7.86-6.89-15.73-10.42-23.56a3.3,3.3,0,0,1,0-3.56c.41-.61.7-1.31,1-2,8.59-15.83,17.28-31.61,25.7-47.53a93.59,93.59,0,0,0,6.15-14.65,105.6,105.6,0,0,0,1.82-60.81c-8.44-31.9-27.53-55.49-56-71.81a6.61,6.61,0,0,0-6.9-.17,95.92,95.92,0,0,0-22.31,16.26A119.12,119.12,0,0,0,870.58,315c-4.36,7.42-9,14.72-11.61,22.94-5,15.57-7.62,31.48-6.24,47.95a108.87,108.87,0,0,0,4,21.55c3.76,12.85,9.44,25,14.82,37.19,3.29,7.47,6.6,14.93,10,22.36a5,5,0,0,1-.35,5c-6,10.64-11.81,21.35-17.69,32-7,12.65-13.86,25.31-20.85,37.94-3.12,5.66-6.44,11.21-9.54,16.88-3,5.39-5.69,10.9-8.63,16.29-2.4,4.4-2.48,4.33-7.5,4.77q-15.54,1.4-31.08,2.84c-13.21,1.21-26.43,2.36-39.63,3.68-11.51,1.15-23,2.16-34.49,3.84a96,96,0,0,0-40.57,15.87c-14.3,9.82-26.75,21.6-35,37.24-2.5,4.77-5.53,9.27-7.34,14.41-6.33,17.86-7,36.17-4.14,54.69,3.24,20.87,10.36,40.44,20.31,59a8.19,8.19,0,0,0,4.62,4,126.76,126.76,0,0,0,33.41,7.64,138.7,138.7,0,0,0,50.16-4.47c5.82-1.59,11.8-3.14,17.12-5.86,11.33-5.81,20.93-14.07,29.46-23.51a128.62,128.62,0,0,0,13.68-19.11c4.84-7.86,9.23-16,13.79-24,3.51-6.18,7-12.4,10.48-18.58,5.68-9.95,11.41-19.87,17.11-29.81,5.27-9.21,10.56-18.41,15.78-27.64a3.58,3.58,0,0,1,3.2-2.15c1.91-.08,3.81-.24,5.72-.42L898.27,624c10.24-1,20.49-2,30.74-2.89,6.22-.55,12.45-.93,18.77-1.4.42.88.82,1.61,1.14,2.38,4.47,10.9,8.9,21.83,13.42,32.71,10.3,24.78,20.72,49.52,31,74.33,14.09,34.1,47,67,90.3,78.62a152.48,152.48,0,0,0,33.57,5.4,148,148,0,0,0,80.85-19.9c10.6-6.08,20.67-12.89,28.73-22.38,11.7-13.75,21.86-28.43,29-45.11C1264.89,704.21,1268.15,681.87,1264.75,658.72Zm-479.63-14.2q-8.52,14.93-17.06,29.83-8.31,14.49-16.64,29c-.95,1.66-1.92,3.31-2.83,5-5.41,9.94-13.66,16.84-23.47,22.13a56.89,56.89,0,0,1-22.77,6.46,60,60,0,0,1-21.07-2,5.79,5.79,0,0,1-3.66-3.23,63.62,63.62,0,0,1-7.43-27.72,61.83,61.83,0,0,1,12.39-40.58C691,652,702.13,644.25,716,641c4.71-1.1,9.67-1.2,14.52-1.67q15.69-1.52,31.38-3c8.87-.8,17.76-1.54,26.64-2.29.7-.06,1.41,0,2.49,0C788.93,637.75,787,641.15,785.12,644.52Zm99.55-70.73c.39-2.57,19.53-38.12,24-44.77,6,13.58,11.9,27,18,40.74Zm43.23-194a47.47,47.47,0,0,1-5,16c-2.68,5.06-5.46,10.07-8.22,15.09a13.37,13.37,0,0,1-1.1,1.48c-.83-1.77-1.62-3.23-2.21-4.77-2.28-5.92-5.52-11.45-6.81-17.79-3.88-19.15.26-36.4,12-51.91a8,8,0,0,1,.89-.82,42.13,42.13,0,0,1,5.92,10.37A59.71,59.71,0,0,1,927.9,379.76ZM1220,678.4c-1.18,21.85-10.44,40.13-25.31,55.5-21.44,22.15-48,32.21-78.66,29.41-30.4-2.77-54.17-17.32-70.45-43.46a47.24,47.24,0,0,1-3.42-6.82q-19.59-47.55-39.11-95.14c-.31-.76-.55-1.56-.95-2.69l31.78-2.71q17.13-1.47,34.27-2.91c8.88-.74,17.77-1.41,26.65-2.13,11.54-.94,23.06-2,34.6-2.85,8.89-.66,17.84-2,26.67-1.5,22.37,1.34,40.76,10.88,54.1,29.23,3.09,4.24,4.6,9.31,6.09,14.3A92.62,92.62,0,0,1,1220,678.4Z" transform="translate(-623.14 -272.51)"/><path class="cls-2" d="M1194,334.93c-2.89-14.09-11.31-23.29-25.34-26.79-9.89-2.46-20-1.5-30.1-1.23a8.53,8.53,0,0,0-1.56.28,7.67,7.67,0,0,0-6.4,6.27,28.54,28.54,0,0,0-.61,5.68c-.06,8.91,0,17.82,0,26.74s0,18,0,27.06a29.26,29.26,0,0,0,.56,5.35,6.51,6.51,0,0,0,5.25,5.34,13.69,13.69,0,0,0,3.45.58c8.37-.1,16.81.34,25.1-.57,13.92-1.52,23.34-9.43,28-22.65A48.16,48.16,0,0,0,1194,334.93Zm-19.29,20.76a16.19,16.19,0,0,1-13.87,11.92c-4.36.66-8.83.57-13.68.83V322.85c6.16-.12,12.19-.51,18,1.64a15.63,15.63,0,0,1,10,11.14A35.31,35.31,0,0,1,1174.68,355.69Z" transform="translate(-623.14 -272.51)"/><path class="cls-3" d="M1118.86,326.79c-1.78-9.68-7.51-16-16.95-18.69a39.83,39.83,0,0,0-9.41-1.37c-5.62-.21-11.26-.1-16.88-.05-8.23.07-11.44,3.16-11.47,11.4q-.12,27.87,0,55.73a20.65,20.65,0,0,0,.94,5.94c1.11,3.54,3.79,5.29,7.46,5.29s6.38-1.72,7.43-5.3a29.42,29.42,0,0,0,1-7.2c.15-4.23,0-8.47,0-13.15,3.26,0,6.12.07,9,0a68.77,68.77,0,0,0,9.2-.57c9.66-1.61,16.19-7,19-16.55A33.28,33.28,0,0,0,1118.86,326.79Zm-18.49,9.95a7.87,7.87,0,0,1-6.42,5.92,44.41,44.41,0,0,1-12.75.47V322.92c4.49-.31,8.82-.49,13,.55s6.25,3.61,6.53,7.93A17.73,17.73,0,0,1,1100.37,336.74Z" transform="translate(-623.14 -272.51)"/></svg>