<svg id="Layer_1" data-name="Layer 1" xmlns="http://www.w3.org/2000/svg" viewBox="0 0 398.83 577.26"><defs><style>.cls-1{fill:#fff;}.cls-2{fill:#ff9f64;}</style></defs><title>powerpoint</title><path class="cls-1" d="M1070.89,363.2a145.63,145.63,0,0,1,31.37,6.06c3.26,1,6.4,2.35,9.57,3.63a117.25,117.25,0,0,1,17,8.51A121.28,121.28,0,0,1,1176,430.58a95.1,95.1,0,0,1,9.36,23.93c1.21,5.32,2.7,10.58,3.72,15.94,1.25,6.54,1.1,13.2,1.16,19.84.12,12.37-2.36,24.29-6.11,36a120.75,120.75,0,0,1-26.79,45.19,128.81,128.81,0,0,1-68.1,38.52,148.7,148.7,0,0,1-32.39,3.08c-23.55-.25-47.11-.38-70.67-.57a9.17,9.17,0,0,1-5.84-1.65,6.3,6.3,0,0,0-1.68-.84A27.12,27.12,0,0,1,965.1,569.8a26.92,26.92,0,0,1,10.39-9.6,28.8,28.8,0,0,1,16.4-3.23c1.7.18,3.41.29,5.11.3,24.28.12,48.57.19,72.86.34a36.4,36.4,0,0,0,9.59-1.22c16.61-4.4,30.47-13.08,40.92-26.82a59.57,59.57,0,0,0,8.46-14.91c1.64-4.34,3.49-8.6,4.31-13.17,2-11.08,1.85-22.08-1.5-32.95a70.13,70.13,0,0,0-28.2-38.26,73.8,73.8,0,0,0-11.78-6.38,67.55,67.55,0,0,0-14.22-4.76,58.51,58.51,0,0,0-11.68-1.37c-18.35,0-36.7-.08-55-.16l-131.15-.54c-20.5-.09-41-.3-61.51-.29-3.61,0-6.64-1.39-9.7-2.81-8.36-3.9-14.25-10-16.19-19.26-1.8-8.52-.34-16.4,5.39-23.22,6-7.15,13.78-10.8,23-10.32,14.29.75,28.58.32,42.87.43,27.61.24,55.22.29,82.83.41q27,.11,54,.18,30,.15,59.9.37c3.23,0,6.45.39,9.68.6Z" transform="translate(-791.43 -295.36)"/><path class="cls-1" d="M951,654.71c0,16,0,32,0,48q-.23,54.63-.54,109.27c-.07,13.13-.46,26.26-.19,39.38.1,5.19-1.85,9-5.13,12.48-4.48,4.81-10.21,7.26-16.54,8.27a35.79,35.79,0,0,1-17.82-1.55,26.73,26.73,0,0,1-10.18-6.38,16.07,16.07,0,0,1-4.68-13.77,31.31,31.31,0,0,0,.17-3.5c0-10.16,0-20.32,0-30.49q.15-41.81.35-83.62c.07-15.29.11-30.58.2-45.87,0-2.87.25-5.74.26-8.61,0-1.88-.22-3.75-.32-5.63-.07-1.35-.16-2.69-.14-4,0-4.22.15-8.45.18-12.67q.2-32.64.36-65.27l.18-31,.36-72c.05-8.27.16-16.54.14-24.81,0-2.21-.53-4.41-.53-6.62a16.88,16.88,0,0,1,4.25-11.53,25,25,0,0,1,11.07-7.39A36.6,36.6,0,0,1,938,438a23.11,23.11,0,0,1,11.24,9.26,16.49,16.49,0,0,1,2.6,9.41c-.19,28.24-.25,56.49-.37,84.73-.11,23.84-.27,47.67-.35,71.51-.06,13.94,0,27.88,0,41.82Z" transform="translate(-791.43 -295.36)"/><path class="cls-1" d="M874.19,351.22c-8.64,0-17.27,0-25.91,0-6.2,0-12.4-.12-18.59-.38a15.1,15.1,0,0,1-4.82-1.4,45,45,0,0,1-5.81-2.79c-9.55-5.63-14.24-14.19-13.78-25.1.55-13.23,9.57-22,20-25.05a26.93,26.93,0,0,1,10.94-.93,36.31,36.31,0,0,0,4.3.2c16.47,0,32.93,0,49.39.05,14.73.06,29.46.26,44.19.34,17.81.1,35.62.13,53.43.19a26.54,26.54,0,0,1,3,.18c2.4.3,4.47,1.37,5.16,3.74.77,2.67.72,5.36-1.43,7.7a128.17,128.17,0,0,1-67,39.23A197.85,197.85,0,0,1,906,351.08a55.83,55.83,0,0,1-6.47.29c-8.45,0-16.9,0-25.36,0Z" transform="translate(-791.43 -295.36)"/><path class="cls-2" d="M1070.89,363.2l-1.08,0Z" transform="translate(-791.43 -295.36)"/></svg>