<svg id="Layer_1" data-name="Layer 1" xmlns="http://www.w3.org/2000/svg" viewBox="0 0 685.21 747.47"><title>User_font_awesome</title><path d="M955,925.28q-107.72,0-215.44,0c-40.57-.07-75.84-12.69-102.1-45.13-17.31-21.39-24.43-46.63-24.91-73.6-1-59.07,4.53-117.42,24.83-173.37,12.65-34.84,30.68-66.61,62-88.48,23.46-16.36,49.88-24.16,78.49-23.65,4.79.09,10,2.12,14.21,4.62,13.63,8.15,26.79,17.06,40.28,25.44,41.81,26,87,39.75,136.55,36.47,37.74-2.49,72.6-14.65,104.9-34.13,11.9-7.17,24-14.23,35-22.66,13.11-10.08,27.26-11.12,42.64-8.87,48.82,7.14,82.54,34.71,105.69,77.1,17.22,31.53,26.53,65.54,32.53,100.64,6.62,38.73,9.82,77.73,6.87,117-4.23,56.35-44.37,98.63-100.69,106.65a204.21,204.21,0,0,1-28,2Q1061.43,925.43,955,925.28Z" transform="translate(-612.42 -177.84)"/><path d="M954.86,177.84c104.17-.07,186.94,82.79,186.83,187.06s-83,187-187.11,186.85C851,551.63,768.29,468.8,768.17,365.05,768.06,260.71,850.62,177.91,954.86,177.84Z" transform="translate(-612.42 -177.84)"/></svg>