<svg id="Layer_1" data-name="Layer 1" xmlns="http://www.w3.org/2000/svg" viewBox="0 0 948 948"><defs><style>.cls-1{fill:#ccc;}.cls-2{fill:#fff;}</style></defs><title>User_font_awesome_bg</title><circle class="cls-1" cx="474" cy="474" r="474"/><path class="cls-2" d="M986,850.46q-107.72,0-215.44,0c-40.57-.08-75.84-12.69-102.1-45.14-17.31-21.39-24.43-46.62-24.9-73.59-1-59.08,4.52-117.42,24.82-173.37,12.65-34.85,30.68-66.62,62-88.48,23.46-16.36,49.89-24.16,78.49-23.65,4.79.08,10,2.11,14.21,4.62,13.63,8.14,26.8,17.05,40.28,25.44,41.81,26,87,39.74,136.55,36.47,37.74-2.5,72.61-14.66,104.9-34.13,11.9-7.17,24-14.23,35-22.67,13.11-10.07,27.26-11.11,42.64-8.86,48.82,7.14,82.54,34.71,105.69,77.1,17.22,31.53,26.53,65.54,32.53,100.64,6.62,38.72,9.82,77.73,6.87,117-4.23,56.35-44.37,98.64-100.68,106.65a202.89,202.89,0,0,1-28,2Q1092.41,850.61,986,850.46Z" transform="translate(-512 -46.89)"/><path class="cls-2" d="M985.83,103c104.18-.08,186.94,82.78,186.83,187.05s-83,187-187.11,186.86C882,476.8,799.26,394,799.15,290.22,799,185.88,881.59,103.09,985.83,103Z" transform="translate(-512 -46.89)"/></svg>