<svg id="Layer_1" data-name="Layer 1" xmlns="http://www.w3.org/2000/svg" viewBox="0 0 600.24 541.5"><defs><style>.cls-1{fill:#fdfefe;}</style></defs><title>word</title><path class="cls-1" d="M1099.57,663.77c1.7-6.91,3.25-13.16,4.77-19.41q32.39-133,64.76-266c2.68-11,5.4-22.05,8-33.09q5.46-23.07,10.78-46.17c.77-3.34.94-6.83,1.9-10.1,4.66-15.84,20.42-25.58,37.18-23.15,15.9,2.3,27.68,16.51,28.38,32.69.37,8.63-2.54,16.32-4.42,24.3Q1234,394.49,1216.63,466q-35,144.15-70.17,288.25c-1.69,7-3.2,14-5.08,20.85s-3.73,14.21-8.84,19.89c-8.28,9.21-18.55,13.32-30.8,11.41-12.61-2-21.39-9.24-26.12-21.06-5.31-13.29-10.17-26.76-15.5-40-13.06-32.51-26.31-64.93-39.43-97.42-7.07-17.51-14-35.08-21-52.63-.35-.87-.74-1.71-1.37-3.19-.69,1.59-1.18,2.65-1.61,3.73q-11.43,28.73-22.86,57.47c-17.51,43.87-34.94,87.78-52.7,131.55-1.72,4.26-5.66,7.56-9.39,10.52a33.58,33.58,0,0,1-42.77-.61c-12.31-10.44-15-27.63-7.51-42.15,4.28-8.27,7.31-17.2,10.77-25.89q21.6-54.27,43.13-108.57,24.58-61.7,49.28-123.36c1.79-4.5,2.82-9.46,5.36-13.48,7.8-12.34,19.43-17.64,33.79-15.3,13.86,2.27,22.64,10.78,27,24.2,3.15,9.69,6.66,19.27,10.45,28.73,15.14,37.74,30.46,75.4,45.68,113.11,3.93,9.73,7.74,19.51,11.61,29.26C1098.76,661.92,1099,662.51,1099.57,663.77Z" transform="translate(-655.15 -265.39)"/><path class="cls-1" d="M794.59,661.7c1.13-2.78,2.27-5.55,3.39-8.33,6.14-15.21,12.33-30.41,18.41-45.64q15.93-39.9,31.77-79.84,15-37.56,30.11-75.1c2.85-7.07,5.84-14.09,8.71-21.16,1.74-4.31,2.8-9,5.15-12.94,8-13.41,24.63-19,39.45-13.8s23.5,19.82,22.33,35.26c-.79,10.5-6.17,19.19-9.5,28.68-2.43,6.92-5.56,13.59-8.31,20.4q-9.68,24-19.28,48c-11.83,29.68-23.57,59.39-35.43,89.06q-30.37,76-61,152c-1.87,4.62-6.1,8.14-10.18,11.3-2.86,2.21-5.7,4.45-8.56,6.65-10.85,8.34-22.74,10.27-35.22,4.61S748,785.1,746.64,771.57c-.76-7.84-2.65-15.58-4.16-23.35q-12.15-62.91-24.38-125.81T693.75,496.89q-12.16-62.77-24.35-125.53-5.73-29.46-11.57-58.9c-.59-3-1.79-5.85-2.27-8.84a33.15,33.15,0,0,1,23.26-36.79c15.89-4.81,32.59,2.82,40.12,17.33,4.2,8.08,4.77,16.79,6.48,25.28,7.79,38.69,15.24,77.44,22.78,116.18s15.07,77.69,22.6,116.54q11.58,59.67,23.13,119.35Z" transform="translate(-655.15 -265.39)"/></svg>