<svg id="Layer_1" data-name="Layer 1" xmlns="http://www.w3.org/2000/svg" viewBox="0 0 515.36 513.49"><defs><style>.cls-1{fill:#fff;}</style></defs><title>Zip</title><path class="cls-1" d="M1262.24,561a29,29,0,0,0-32.31,2c-5.9,4.42-8.53,10.84-11.19,17.23-.75,1.79-.3,4.1-.34,6.18q-.09,4.84-.1,9.69l-.48,115.35c0,1.74,0,3.49,0,5.58h-6l-291-.88q-49.08-.15-98.16-.37c-1.19,0-2.39-.12-3.52-.17-.66-6.52.85-393.82,1.51-396.4a3.5,3.5,0,0,1,.86-.22q122.68.35,245.39.73a13.72,13.72,0,0,1,1.54.18.47.47,0,0,1,.25.15,6.17,6.17,0,0,1,.41.51v2.82q-.07,32.82-.15,65.65c0,8.12-.17,16.25-.18,24.38,0,13.74.08,27.49,0,41.24,0,9.13,2.59,17.22,8.86,24,.55.59,1,1.23,1.56,1.86-1.13,1.33-2.18,2.48-3.13,3.7-5.11,6.53-7,14.09-7,22.21q0,26.58,0,53.15a17.23,17.23,0,0,0,.11,2.49c2.31,15.86,16.27,30.4,36.68,27,12.46-2.07,20.53-9.93,24.56-21.89a40.84,40.84,0,0,0,1.76-12.93c.08-16.88,0-33.76,0-50.64a31.55,31.55,0,0,0-7.08-19.91c-.88-1.14-1.92-2.15-2.78-3.1,0-.33,0-.45.09-.52a9.36,9.36,0,0,1,.74-1c6.57-7.1,9.25-15.61,9.26-25.16,0-19.38.12-38.76.18-58.14q.09-36.26.18-72.52c0-1,.1-2,.15-3h84.33c.07,1.37.18,2.38.17,3.4q-.29,63.61-.59,127.23c0,2.07-.35,4.16-.3,6.23.08,3.21-.08,6.51.62,9.59A28.22,28.22,0,0,0,1243,488.65c13.44.67,25-7,29.25-19.47.3-.89.31-2.1.92-2.61,1.37-1.16,1.11-2.58,1.12-4q.36-80.19.67-160.36A71.27,71.27,0,0,0,1274,289c-2.28-12.39-9-20.38-20.88-24.53a22.92,22.92,0,0,0-7.64-1.51q-59.09-.15-118.17-.36-168-.51-336-1a29.89,29.89,0,0,0-6.19.63,28.45,28.45,0,0,0-22.48,32,31.68,31.68,0,0,1,.22,4.36q-.2,61.43-.42,122.85-.48,156.77-.94,313.53a32.17,32.17,0,0,1-.31,4c-1.2,9.61,1.28,18.1,8.37,24.77a35.67,35.67,0,0,0,24.65,9.86c2.87,0,5.75-.5,8.63-.49q55,.14,110,.35l325.1,1a40.61,40.61,0,0,1,4.66.36c7.91.94,15.18-.72,21.47-5.67s10.35-11.32,11-19.45c.27-3.61-.1-7.26-.09-10.9q.3-72.52.65-145.05a25.78,25.78,0,0,1,.29-3.72A28.62,28.62,0,0,0,1262.24,561Zm-162.33,3.09a9.13,9.13,0,0,1-8.65-9.58c.16-4.21.12-8.45-.06-12.67a9.31,9.31,0,0,1,8.36-9.28,8.89,8.89,0,0,1,9.06,8.13c.12,2.59,0,5.19,0,7.78h0c0,2.18,0,4.36,0,6.54C1108.75,560,1104.64,564.23,1099.91,564.1Zm-8.9-57.5a8.75,8.75,0,0,1,8.78-8.63,8.94,8.94,0,0,1,8.65,8.52c.1,4.51-4.14,8.85-8.69,8.91A9,9,0,0,1,1091,506.6ZM1114.31,320c0,.92.09,1.68.16,2.78h-26.9c0-.92-.1-1.76-.16-2.78Zm.07,103.17v5.8h-27v-5.8Zm-26.91-20.34v-5.65c2.24-.63,21.89-.82,26.59-.24v5.89Zm26.75-53.42c-2.81.63-5.79.2-8.72.28s-5.83,0-8.74,0h-9.28v-6.59h26.74Zm-26.81,21.09.53-.71h26.15v6.67h-26.68Zm-.59,78.78h27.27c.52,6.71,1.12,13.27-4.82,18.13-4.25,3.49-9,4.26-14,2.06a13.27,13.27,0,0,1-8.38-11.83C1086.66,454.94,1086.82,452.24,1086.82,449.25Z" transform="translate(-760.87 -261.6)"/></svg>