<svg id="Layer_1" data-name="Layer 1" xmlns="http://www.w3.org/2000/svg" viewBox="0 0 948 948"><defs><style>.cls-1{fill:#ccc;}.cls-2{fill:#fff;}</style></defs><title>User_font_awesome_bg_margin_final</title><path class="cls-1" d="M730.37,614.24c23.46-16.36,49.89-24.16,78.49-23.65,4.79.08,10,2.11,14.21,4.62,13.63,8.14,26.8,17,40.28,25.44,41.81,26,87,39.74,136.55,36.47,37.74-2.5,72.61-14.66,104.9-34.13,11.9-7.17,24-14.23,35-22.67,13.11-10.07,27.26-11.11,42.64-8.86,48.82,7.14,82.54,34.71,105.69,77.1,17.22,31.53,26.53,65.54,32.53,100.64a528.54,528.54,0,0,1,7.9,79.33A472.39,472.39,0,0,0,1460,520.89c0-261.78-212.22-474-474-474s-474,212.22-474,474A472.41,472.41,0,0,0,643.54,848.6c1-49.67,7.66-98.63,24.8-145.88C681,667.87,699,636.1,730.37,614.24ZM985.83,247.42c104.18-.08,186.94,82.78,186.83,187.05s-83,187-187.11,186.86c-103.59-.13-186.29-83-186.4-186.71C799,330.28,881.59,247.49,985.83,247.42Z" transform="translate(-512 -46.89)"/><path class="cls-1" d="M981,994.86l5,0c1.68,0,3.35,0,5,0H981Z" transform="translate(-512 -46.89)"/><path class="cls-2" d="M1328.53,848.53a528.54,528.54,0,0,0-7.9-79.33c-6-35.1-15.31-69.11-32.53-100.64-23.15-42.39-56.87-70-105.69-77.1-15.38-2.25-29.53-1.21-42.64,8.86-11,8.44-23.07,15.5-35,22.67-32.29,19.47-67.16,31.63-104.9,34.13-49.51,3.27-94.74-10.49-136.55-36.47-13.48-8.39-26.65-17.3-40.28-25.44-4.2-2.51-9.42-4.54-14.21-4.62-28.6-.51-55,7.29-78.49,23.65-31.35,21.86-49.38,53.63-62,88.48C651.2,750,644.56,798.93,643.54,848.6A472.63,472.63,0,0,0,981,994.86h10A472.61,472.61,0,0,0,1328.53,848.53Z" transform="translate(-512 -46.89)"/><path class="cls-2" d="M985.55,621.33c104.11.12,187-82.66,187.11-186.86S1090,247.34,985.83,247.42,799,330.28,799.15,434.62C799.26,538.38,882,621.2,985.55,621.33Z" transform="translate(-512 -46.89)"/></svg>
