<?xml version="1.0" encoding="utf-8"?>
<!-- Generator: Adobe Illustrator 22.0.1, SVG Export Plug-In . SVG Version: 6.00 Build 0)  -->
<svg version="1.1" xmlns="http://www.w3.org/2000/svg" xmlns:xlink="http://www.w3.org/1999/xlink" x="0px" y="0px"
	 viewBox="0 0 120 240" style="enable-background:new 0 0 120 240;" xml:space="preserve">
<style type="text/css">
	.st0{display:none;}
	.st1{display:inline;fill:#808080;}
	.st2{fill:#FFFFFF;}
</style>
<g id="Layer_2" class="st0">
	<rect x="-0.2" y="0.6" class="st1" width="1900" height="1900"/>
</g>
<g id="Layer_1">
	<g>
		<g>
			<path class="st2" d="M33.8,59c-0.1,0-0.1,0-0.2,0L1.1,54C0.5,53.9,0,53.4,0,52.7V10.2C0,9.7,0.4,9.1,1,9l32.5-7.5
				c0.4-0.1,0.8,0,1.1,0.2C34.8,2,35,2.4,35,2.7v55c0,0.4-0.2,0.7-0.4,0.9C34.3,58.9,34,59,33.8,59z M2.5,51.7l30,4.6v-52l-30,6.9
				V51.7z"/>
		</g>
		<g>
			<path class="st2" d="M58.8,54h-25c-0.7,0-1.3-0.6-1.3-1.3c0-0.7,0.6-1.3,1.3-1.3h23.8V9H33.8c-0.7,0-1.3-0.6-1.3-1.2
				s0.6-1.3,1.3-1.3h25C59.4,6.5,60,7,60,7.7v45C60,53.4,59.4,54,58.8,54z"/>
		</g>
		<g>
			<path class="st2" d="M51.3,46.5H33.8c-0.7,0-1.3-0.6-1.3-1.3c0-0.7,0.6-1.3,1.3-1.3h17.5c0.7,0,1.3,0.6,1.3,1.3
				C52.5,45.9,51.9,46.5,51.3,46.5z"/>
		</g>
		<g>
			<path class="st2" d="M51.3,39H33.8c-0.7,0-1.3-0.6-1.3-1.3c0-0.7,0.6-1.3,1.3-1.3h17.5c0.7,0,1.3,0.6,1.3,1.3
				C52.5,38.4,51.9,39,51.3,39z"/>
		</g>
		<g>
			<path class="st2" d="M11.3,41.5c-0.7,0-1.3-0.6-1.3-1.3v-20c0-0.7,0.6-1.3,1.3-1.3h5c3.4,0,6.3,2.8,6.3,6.3v2.5
				c0,3.4-2.8,6.3-6.3,6.3h-3.8v6.3C12.5,40.9,11.9,41.5,11.3,41.5z M12.5,31.5h3.8c2.1,0,3.8-1.7,3.8-3.8v-2.5
				c0-2.1-1.7-3.8-3.8-3.8h-3.8V31.5z"/>
		</g>
		<g>
			<g>
				<path class="st2" d="M51.3,24h-7.5c-0.7,0-1.3-0.6-1.3-1.3v-7.5c0-0.7,0.6-1.3,1.3-1.3c4.8,0,8.8,3.9,8.8,8.8
					C52.5,23.4,51.9,24,51.3,24z M45,21.5h4.9c-0.5-2.4-2.4-4.4-4.9-4.9V21.5z"/>
			</g>
		</g>
		<g>
			<path class="st2" d="M41.3,34c-4.8,0-8.8-3.9-8.8-8.8s3.9-8.8,8.8-8.8c0.7,0,1.3,0.6,1.3,1.3c0,0.7-0.6,1.3-1.3,1.3
				c-3.4,0-6.3,2.8-6.3,6.3s2.8,6.3,6.3,6.3s6.3-2.8,6.3-6.3c0-0.7,0.6-1.3,1.3-1.3s1.3,0.6,1.3,1.3C50,30.1,46.1,34,41.3,34z"/>
		</g>
	</g>
	<g>
		<g>
			<path class="st2" d="M33.8,119c-0.1,0-0.1,0-0.2,0l-32.5-5c-0.6-0.1-1.1-0.6-1.1-1.2V70.2c0-0.6,0.4-1.1,1-1.2l32.5-7.5
				c0.4-0.1,0.8,0,1.1,0.2c0.3,0.2,0.5,0.6,0.5,1v55c0,0.4-0.2,0.7-0.4,0.9C34.3,118.9,34,119,33.8,119z M2.5,111.7l30,4.6v-52
				l-30,6.9V111.7z"/>
		</g>
		<g>
			<path class="st2" d="M58.8,114h-25c-0.7,0-1.3-0.6-1.3-1.3s0.6-1.3,1.3-1.3h23.8V69H33.8c-0.7,0-1.3-0.6-1.3-1.3s0.6-1.3,1.3-1.3
				h25c0.7,0,1.3,0.6,1.3,1.3v45C60,113.4,59.4,114,58.8,114z"/>
		</g>
		<g>
			<path class="st2" d="M21.3,101.5c-0.6,0-1-0.4-1.2-0.9l-3.8-13.3l-3.8,13.3c-0.3,1.1-2.1,1.1-2.4,0L5,83.1
				c-0.2-0.7,0.2-1.4,0.9-1.5c0.7-0.2,1.4,0.2,1.5,0.9l3.8,13.3l3.8-13.3c0.3-1.1,2.1-1.1,2.4,0l3.8,13.3l3.8-13.3
				c0.2-0.7,0.9-1.1,1.5-0.9c0.7,0.2,1,0.9,0.9,1.5l-5,17.5C22.3,101.1,21.8,101.5,21.3,101.5z"/>
		</g>
		<g>
			<path class="st2" d="M53.8,76.5h-20c-0.7,0-1.3-0.6-1.3-1.3s0.6-1.3,1.3-1.3h20c0.7,0,1.3,0.6,1.3,1.3S54.4,76.5,53.8,76.5z"/>
		</g>
		<g>
			<path class="st2" d="M53.8,84h-20c-0.7,0-1.3-0.6-1.3-1.3s0.6-1.3,1.3-1.3h20c0.7,0,1.3,0.6,1.3,1.3S54.4,84,53.8,84z"/>
		</g>
		<g>
			<path class="st2" d="M53.8,91.5h-20c-0.7,0-1.3-0.6-1.3-1.3s0.6-1.3,1.3-1.3h20c0.7,0,1.3,0.6,1.3,1.3S54.4,91.5,53.8,91.5z"/>
		</g>
		<g>
			<path class="st2" d="M53.8,99h-20c-0.7,0-1.3-0.6-1.3-1.3s0.6-1.3,1.3-1.3h20c0.7,0,1.3,0.6,1.3,1.3S54.4,99,53.8,99z"/>
		</g>
		<g>
			<path class="st2" d="M53.8,106.5h-20c-0.7,0-1.3-0.6-1.3-1.3s0.6-1.3,1.3-1.3h20c0.7,0,1.3,0.6,1.3,1.3S54.4,106.5,53.8,106.5z"
				/>
		</g>
	</g>
	<g>
		<g>
			<path class="st2" d="M33.8,179c-0.1,0-0.1,0-0.2,0l-32.5-5c-0.6-0.1-1.1-0.6-1.1-1.2v-42.5c0-0.6,0.4-1.1,1-1.2l32.5-7.5
				c0.4-0.1,0.8,0,1.1,0.2c0.3,0.2,0.5,0.6,0.5,1v55c0,0.4-0.2,0.7-0.4,0.9C34.3,178.9,34,179,33.8,179z M2.5,171.7l30,4.6v-52
				l-30,6.9V171.7z"/>
		</g>
		<g>
			<path class="st2" d="M58.8,174h-25c-0.7,0-1.3-0.6-1.3-1.3s0.6-1.3,1.3-1.3h23.8V129H33.8c-0.7,0-1.3-0.6-1.3-1.3
				s0.6-1.3,1.3-1.3h25c0.7,0,1.3,0.6,1.3,1.3v45C60,173.4,59.4,174,58.8,174z"/>
		</g>
		<g>
			<path class="st2" d="M23.8,161.5c-0.4,0-0.8-0.2-1.1-0.6l-12.5-20c-0.4-0.6-0.2-1.4,0.4-1.7c0.6-0.4,1.4-0.2,1.7,0.4l12.5,20
				c0.4,0.6,0.2,1.4-0.4,1.7C24.2,161.4,24,161.5,23.8,161.5z"/>
		</g>
		<g>
			<path class="st2" d="M11.3,161.5c-0.2,0-0.5-0.1-0.7-0.2c-0.6-0.4-0.8-1.1-0.4-1.7l12.5-20c0.4-0.6,1.1-0.8,1.7-0.4
				c0.6,0.4,0.8,1.1,0.4,1.7l-12.5,20C12.1,161.3,11.7,161.5,11.3,161.5z"/>
		</g>
		<g>
			<path class="st2" d="M43.8,174c-0.7,0-1.3-0.6-1.3-1.3v-45c0-0.7,0.6-1.3,1.3-1.3s1.3,0.6,1.3,1.3v45C45,173.4,44.4,174,43.8,174
				z"/>
		</g>
		<g>
			<path class="st2" d="M58.8,166.5h-25c-0.7,0-1.3-0.6-1.3-1.3s0.6-1.3,1.3-1.3h25c0.7,0,1.3,0.6,1.3,1.3S59.4,166.5,58.8,166.5z"
				/>
		</g>
		<g>
			<path class="st2" d="M58.8,159h-25c-0.7,0-1.3-0.6-1.3-1.3s0.6-1.3,1.3-1.3h25c0.7,0,1.3,0.6,1.3,1.3S59.4,159,58.8,159z"/>
		</g>
		<g>
			<path class="st2" d="M58.8,151.5h-25c-0.7,0-1.3-0.6-1.3-1.3s0.6-1.3,1.3-1.3h25c0.7,0,1.3,0.6,1.3,1.3S59.4,151.5,58.8,151.5z"
				/>
		</g>
		<g>
			<path class="st2" d="M58.8,144h-25c-0.7,0-1.3-0.6-1.3-1.3s0.6-1.3,1.3-1.3h25c0.7,0,1.3,0.6,1.3,1.3S59.4,144,58.8,144z"/>
		</g>
		<g>
			<path class="st2" d="M58.8,136.5h-25c-0.7,0-1.3-0.6-1.3-1.3s0.6-1.3,1.3-1.3h25c0.7,0,1.3,0.6,1.3,1.3S59.4,136.5,58.8,136.5z"
				/>
		</g>
	</g>
	<g id="Pdf_4_">
		<g>
			<g>
				<g>
					<path class="st2" d="M49.5,240.1H10.8c-2.7,0-4.8-2.2-4.8-4.8V185c0-2.7,2.2-4.8,4.8-4.8h19.7c1.3,0,2.5,0.5,3.4,1.4l19,19
						c0.9,0.9,1.4,2.1,1.4,3.4v31.3C54.4,237.9,52.2,240.1,49.5,240.1z M11.4,182.1c-1.6,0-2.9,1.3-2.9,2.9v50.3
						c0,1.6,1.3,2.9,2.9,2.9h38.7c1.6,0,2.9-1.3,2.9-2.9V204c0-0.8-0.3-1.5-0.9-2.1l-19-19c-0.5-0.5-1.3-0.9-2.1-0.9H11.4z"/>
				</g>
			</g>
			<g>
				<g>
					<path class="st2" d="M45.3,218c0-0.2-0.2-0.6-0.4-0.8c-0.6-0.6-2-0.9-4-0.9c-1.4,0-3,0.1-4.8,0.4c-0.8-0.4-1.6-0.9-2.2-1.5
						c-1.7-1.6-3.1-3.8-4-6.2c0.1-0.2,0.1-0.4,0.2-0.6c0,0,1-5.5,0.7-7.3c0-0.3-0.1-0.3-0.1-0.5l-0.1-0.2c-0.3-0.6-0.8-1.2-1.6-1.2
						l-0.5,0h0c-0.9,0-1.6,0.5-1.8,1.1c-0.6,2.1,0,5.4,1.1,9.5l-0.3,0.7c-0.8,1.9-1.8,3.8-2.6,5.5l-0.1,0.2
						c-0.9,1.8-1.7,3.3-2.5,4.6l-0.8,0.4c-0.1,0-1.4,0.7-1.7,0.9c-2.6,1.6-4.4,3.4-4.7,4.8c-0.1,0.5,0,1,0.4,1.3l0.7,0.4
						c0.3,0.2,0.7,0.2,1,0.2c1.9,0,4-2.3,7-7.6c3.5-1.1,7.4-2.1,10.8-2.6c2.6,1.5,5.9,2.5,7.9,2.5c0.4,0,0.7,0,0.9-0.1
						c0.4-0.1,0.7-0.3,0.9-0.6C45.3,219.7,45.4,218.9,45.3,218z M16.9,227.2c0.3-0.9,1.7-2.8,3.7-4.4c0.1-0.1,0.4-0.4,0.7-0.7
						C19.2,225.5,17.8,226.8,16.9,227.2z M28.7,200c0.6,0,0.9,1.5,1,2.9c0,1.4-0.3,2.4-0.7,3.2c-0.3-1.1-0.5-2.8-0.5-3.9
						C28.5,202.1,28.4,200,28.7,200z M25.2,219.4c0.4-0.8,0.9-1.5,1.3-2.4c1.1-2.1,1.8-3.7,2.3-5c1,1.8,2.3,3.4,3.8,4.7
						c0.2,0.2,0.4,0.3,0.6,0.5C30.1,217.8,27.5,218.5,25.2,219.4z M44.3,219.2c-0.2,0.1-0.7,0.2-1,0.2c-1.1,0-2.5-0.5-4.4-1.3
						c0.7-0.1,1.4-0.1,2-0.1c1.1,0,1.4,0,2.5,0.3C44.4,218.5,44.5,219.1,44.3,219.2z"/>
				</g>
			</g>
		</g>
	</g>
	<g id="Pdf_1_">
		<g>
			<g>
				<g>
					<path class="st2" d="M109.5,60H70.8c-2.7,0-4.8-2.2-4.8-4.8V4.8C66,2.2,68.2,0,70.8,0h19.7c1.3,0,2.5,0.5,3.4,1.4l19,19
						c0.9,0.9,1.4,2.1,1.4,3.4v31.3C114.4,57.8,112.2,60,109.5,60z M70.8,1.9c-1.6,0-2.9,1.3-2.9,2.9v50.3c0,1.6,1.3,2.9,2.9,2.9
						h38.7c1.6,0,2.9-1.3,2.9-2.9V23.9c0-0.8-0.3-1.5-0.9-2.1l-19-19c-0.5-0.5-1.3-0.9-2.1-0.9H70.8z"/>
				</g>
			</g>
		</g>
	</g>
	<g>
		<g>
			<path class="st2" d="M86.6,80.3v-9.4c0-0.1,0-0.4,0-0.6L75.6,82.4c-0.3,0.3-0.7,0.4-1,0.4h-8.1c-1.9,0-3.4,1.5-3.4,3.4v7
				c0,1.9,1.5,3.4,3.4,3.4h6.4v-8.5c0-0.7,0.7-1.5,1.5-1.5s1.5,0.7,1.5,1.5v9.4l10.6,11.8c0-0.1,0-0.3,0-0.6v-9.3
				c0-0.9,0.7-1.5,1.5-1.5s1.5,0.6,1.5,1.5v9.3c0,1.8-0.7,3.3-2.1,3.7c-0.3,0.1-0.6,0.1-0.9,0.1c-0.7,0-1.3-0.3-1.9-0.9l-10.8-12
				h-7.3c-3.6,0-6.4-2.8-6.4-6.4v-7c0-3.6,2.8-6.4,6.4-6.4h7.2l10.9-12.1c0.7-0.9,1.8-1.2,2.8-0.7c1.3,0.4,2.1,1.9,2.1,3.7v9.4
				c0,0.9-0.7,1.5-1.5,1.5S86.6,81.2,86.6,80.3z"/>
		</g>
		<g>
			<path class="st2" d="M118.4,91.4H97.4c-0.9,0-1.5-0.6-1.5-1.5s0.6-1.5,1.5-1.5h21.1c0.9,0,1.5,0.6,1.5,1.5S119.3,91.4,118.4,91.4
				z"/>
		</g>
		<g>
			<path class="st2" d="M100.4,82c-0.4,0-0.7-0.1-1-0.4c-0.6-0.6-0.6-1.5,0-2.1l15-15c0.6-0.6,1.5-0.6,2.1,0s0.6,1.5,0,2.1l-15,15
				C101.1,82,100.8,82,100.4,82z"/>
		</g>
		<g>
			<path class="st2" d="M115.4,115.8c-0.4,0-0.7-0.1-1-0.4l-15-15c-0.6-0.6-0.6-1.5,0-2.1s1.5-0.6,2.1,0l15,15
				c0.6,0.6,0.6,1.5,0,2.1C116.1,115.6,115.7,115.8,115.4,115.8z"/>
		</g>
		<g>
			<path class="st2" d="M88.1,95.4c-0.9,0-1.5-0.6-1.5-1.5s0.6-1.5,1.5-1.5c1.3,0,2.4-1,2.4-2.4s-1-2.4-2.4-2.4
				c-0.9,0-1.5-0.6-1.5-1.5s0.6-1.5,1.5-1.5c3,0,5.4,2.4,5.4,5.4C93.5,92.9,91.1,95.4,88.1,95.4z"/>
		</g>
	</g>
	<g>
		<g>
			<path class="st2" d="M114.1,126H65.9c-3.3,0-5.9,2.6-5.9,5.9v32.9c0,3.3,2.6,5.9,5.9,5.9h48.2c3.3,0,5.9-2.6,5.9-5.9v-32.9
				C120,128.6,117.4,126,114.1,126z M117.6,164.8c0,2-1.5,3.5-3.5,3.5H65.9c-2,0-3.5-1.5-3.5-3.5v-32.9c0-2,1.5-3.5,3.5-3.5h48.2
				c2,0,3.5,1.5,3.5,3.5V164.8z M98.1,147.3l-12.9-6.2c-0.4-0.1-0.8-0.1-1.2,0.1c-0.2,0.1-0.5,0.6-0.5,0.9v12.5
				c0,0.4,0.2,0.8,0.6,0.9c0.2,0.1,0.4,0.2,0.6,0.2c0.1,0,0.4,0,0.5-0.1l12.9-6.2c0.4-0.2,0.7-0.6,0.7-1.1
				C98.8,147.9,98.6,147.5,98.1,147.3z M85.9,152.7V144l9.1,4.4L85.9,152.7z"/>
		</g>
	</g>
	<g id="Zip_2_">
		<g>
			<g>
				<path class="st2" d="M109.4,240H70.7c-2.7,0-4.8-2.2-4.8-4.8v-50.3c0-2.7,2.2-4.8,4.8-4.8h19.7c1.3,0,2.5,0.5,3.4,1.4l19,19
					c0.9,0.9,1.4,2.1,1.4,3.4v31.3C114.2,237.8,112.1,240,109.4,240z M70.7,181.9c-1.6,0-2.9,1.3-2.9,2.9v50.3
					c0,1.6,1.3,2.9,2.9,2.9h38.7c1.6,0,2.9-1.3,2.9-2.9v-31.3c0-0.8-0.3-1.5-0.9-2.1l-19-19c-0.5-0.5-1.3-0.9-2.1-0.9H70.7z"/>
			</g>
			<g>
				<rect x="81.8" y="233.2" class="st2" width="4.8" height="2.9"/>
			</g>
			<g>
				<rect x="77" y="236.1" class="st2" width="4.8" height="2.9"/>
			</g>
			<g>
				<rect x="81.8" y="227.4" class="st2" width="4.8" height="2.9"/>
			</g>
			<g>
				<rect x="77" y="230.3" class="st2" width="4.8" height="2.9"/>
			</g>
			<g>
				<rect x="81.8" y="221.6" class="st2" width="4.8" height="2.9"/>
			</g>
			<g>
				<rect x="77" y="224.5" class="st2" width="4.8" height="2.9"/>
			</g>
			<g>
				<rect x="81.8" y="215.8" class="st2" width="4.8" height="2.9"/>
			</g>
			<g>
				<rect x="77" y="218.7" class="st2" width="4.8" height="2.9"/>
			</g>
			<g>
				<rect x="81.8" y="210" class="st2" width="4.8" height="2.9"/>
			</g>
			<g>
				<rect x="77" y="212.9" class="st2" width="4.8" height="2.9"/>
			</g>
			<g>
				<path class="st2" d="M86.2,193.1h-7.7c-0.5,0-1,0.4-1,1v12.1c0,0.5,0.4,1,1,1h7.7c0.5,0,1-0.4,1-1V194
					C87.1,193.5,86.7,193.1,86.2,193.1z M84.7,200.8h-4.8v-5.3h4.8V200.8z"/>
			</g>
		</g>
	</g>
	<g>
	</g>
	<g>
	</g>
	<g>
	</g>
	<g>
	</g>
	<g>
	</g>
</g>
</svg>
