<svg id="Layer_1" data-name="Layer 1" xmlns="http://www.w3.org/2000/svg" viewBox="0 0 585.53 902.61"><defs><style>.cls-1{fill:#dadada;}</style></defs><title>ful_giraffe</title><path class="cls-1" d="M1199.5,237.92c-3.85-9.13-8.46-17.8-15.78-24.68a180.72,180.72,0,0,0-31.39-23.86c-24.18-14.41-50.08-22.77-78.51-22.19a11,11,0,0,1-1.76-.27c.62-3.13,1.21-6.08,1.82-9.14,1-.13,1.8-.25,2.61-.33a25,25,0,0,0,22.67-20.92c2.55-14.5-9.22-29.71-23.84-28.28a34.83,34.83,0,0,1-4.57.09,16.78,16.78,0,0,0-9.8,2.91,25.16,25.16,0,0,0-4.71,38.6c1.14,1.18,2.3,2.33,3.6,3.65l-4.32,14.55-30.83,6.67c-1.64-4.07-3.18-8.22-5-12.25-1-2.27-.75-4,.58-6.08a18.13,18.13,0,0,0-1.87-22,18.41,18.41,0,0,0-32,14.13c.75,8.08,6.67,14.52,15,16.27.78.16,1.56.38,2.36.58l6.45,16.25a114.18,114.18,0,0,0-25.58,18.1c-6.08-3.19-11.49-6.62-17.34-9-14.31-5.77-29.19-6-44.16-3-4.45.88-9.14,1.68-13.12,3.7-12.59,6.4-22.25,15.92-28,29-1,2.34-1.7,4.85-2.61,7.49a60.44,60.44,0,0,0,17.62,2.5,110,110,0,0,0,43-8c9.76-3.87,19.55-7.77,27.53-15a8.27,8.27,0,0,1,10-1.16l-16,22.22c-16.93-1.88-29.48.19-44.35,7.48-7,3.42-14.09,7-19.35,12.74-10.41,11.27-16.09,24.76-16.13,40.32a51.45,51.45,0,0,0,.58,5.49C909.82,290,930.7,275,949,255.46a9.66,9.66,0,0,1-.56,2.94c-1.51,4.89-3.21,9.74-4.52,14.68a323.55,323.55,0,0,0-10.11,100.06c.9,17.16,1.61,34.34,2.63,51.5,1.45,24.21,3.43,48.38,7,72.39,3.93,26.73,7.74,53.48,12.24,80.12,5,29.77,10.74,59.42,16.15,89.13.21,1.17.35,2.36.57,3.89-1.45-.2-2.51-.33-3.57-.5-8.75-1.4-17.48-2.95-26.25-4.19A348.44,348.44,0,0,0,866.21,663a241.09,241.09,0,0,0-51,9.38c-32.41,9.81-60.41,26.66-83,52.14-20.52,23.16-33.57,50.37-42.79,79.53-7.23,22.85-7.57,46.37-4.59,70,.74,5.93.57,11.61-2.06,17.05a13.84,13.84,0,0,1-10,8.14c-.23-1.79-.42-3.43-.65-5.05a25.75,25.75,0,0,0-24.93-22c-12.7-.28-24,9-26,21.27-2.15,13.13,5.32,25.46,17.75,29.28a25.71,25.71,0,0,0,31.19-14c1.09-2.48,2.22-3.89,5.12-4.46A17.33,17.33,0,0,0,687,895.66a26,26,0,0,0,3.75-15.11,288.59,288.59,0,0,1,.33-39.89c.83-10.52,2.2-20.95,5.77-30.95,1.09-3.07,2.6-6,4-9.18l23.3,10c-.5,3.72-1.1,7.12-1.42,10.55-1.54,16.69-3.38,33.36-4.43,50.09-1.78,28.27-1.69,56.53,2.7,84.62,2,12.89,5.06,25.51,10.45,37.48a10,10,0,0,0,3.91,4.65,85.33,85.33,0,0,0,25,11c17.61,4.38,33.46,1.38,47.15-11.15,2.59-2.37,3.13-4.65,1.83-7.68-.27-.63-.47-1.3-.7-1.95-4.19-11.73-8.41-23.45-12.54-35.2a15.57,15.57,0,0,1-1.09-5.22c.23-15,.58-29.93.9-44.9l1.6.82c.25,1.36.56,2.72.73,4.09A296.05,296.05,0,0,0,806,948.05c3.47,12.86,7.81,25.41,14.68,36.94.7,1.17,1.38,2.65,2.47,3.24,3,1.64,6.14,3.49,9.44,4.2,20.38,4.36,39.91,1.57,58.59-7.61a5.74,5.74,0,0,0,3.27-4,7.61,7.61,0,0,0-.63-5.58c-5.06-10.62-9.93-21.34-15.11-31.9a88.62,88.62,0,0,1-7.13-21.62,422.48,422.48,0,0,1-6.76-50.63c-.16-1.86-.27-3.73-.38-5.45,6,1.11,11.66,2.55,17.39,3.15a217.6,217.6,0,0,0,59.65-2.16c28.67-4.91,55.52-14.95,80.82-29.23,1.18-.66,2.41-1.24,3.74-1.93l81.09,55c-8.4,29-16.67,57.55-24.92,86.05a48.5,48.5,0,0,0,16.26,10.33c13.26,5.21,27,5.78,40.89,3.92a4.59,4.59,0,0,0,3.81-2.81c1.47-3.13,3.07-6.21,4.32-9.43,9.84-25.28,18-51.15,26.2-77a5.62,5.62,0,0,0-.38-4.35c-4-8.53-7.62-17.22-12-25.56-15.61-30-34.92-57.51-56.25-83.67a17.13,17.13,0,0,1-2.95-4.91c-5-14-9.34-28.13-14.78-41.89-18-45.58-32.38-92.2-41.53-140.39A640.46,640.46,0,0,1,1035,509.7c-1.71-38.45-.24-76.76,6.37-114.76,1.88-10.78,3.79-21.55,7.43-31.93,7.25-20.66,21.13-34.07,42.63-39.2,13.95-3.33,28-3.14,42.16-1.47,10.77,1.28,21.53,2.07,32.34.55,6.93-1,13.49-2.82,19.29-7.05a48.79,48.79,0,0,0,20-32.37C1207.91,267.74,1205.66,252.57,1199.5,237.92Z" transform="translate(-620.8 -108.16)"/><path class="cls-1" d="M1021.89,843.08c-9.29,5.82-18.27,11.57-27.38,17.09a8,8,0,0,0-4,5.8c-4.42,21.14-8.53,42.34-11.26,63.77-1.24,9.75-2,19.57-2.45,29.38-.22,4.65.68,9.36,1.29,14,.33,2.5,1.84,4,4.42,4.92,11,3.7,22.19,6,33.83,5.35,9.59-.51,18.51-3.13,26.38-8.87a6.65,6.65,0,0,0,3.09-5.81c.65-30.33,1.48-60.66,2.19-91,.16-6.77,0-13.55,0-20.78Z" transform="translate(-620.8 -108.16)"/></svg>