<svg xmlns="http://www.w3.org/2000/svg" viewBox="0 0 1257.98 683.7"><defs><style>.cls-1{fill:#fefefe;}</style></defs><title>Untitled-1</title><g id="Layer_1" data-name="Layer 1"><path class="cls-1" d="M1232.62,1663.43V1667c0,23.85,0,47.7.06,71.55,0,2.48-.7,3-3.06,3-8.83-.14-17.66-.11-26.49,0-2,0-2.44-.6-2.44-2.48q.07-62.55,0-125.08c0-1.67.29-2.41,2.24-2.39q13.79.17,27.58,0a3.86,3.86,0,0,1,3.32,1.86q30,36.49,60,73l2.11,2.53c.7-1.16.4-2.17.4-3.11,0-23.76.06-47.52,0-71.28,0-2.45.67-3,3-3,8.83.15,17.66.11,26.49,0,1.9,0,2.46.51,2.46,2.44q-.09,62.54,0,125.08c0,2-.66,2.43-2.51,2.41-8.83-.08-17.66-.1-26.49,0a4.93,4.93,0,0,1-4.35-2q-30-36.79-60.18-73.5C1234.19,1665.26,1233.62,1664.61,1232.62,1663.43Z" transform="translate(-222.07 -1060)"/><path class="cls-1" d="M1014.64,1663.42v35.68c0,13.2,0,26.4.05,39.6,0,2.08-.43,2.83-2.69,2.79-8.92-.14-17.85-.1-26.77,0-1.83,0-2.52-.4-2.52-2.39q.07-62.53,0-125.08c0-1.89.51-2.48,2.44-2.46q13.51.15,27,0a4.18,4.18,0,0,1,3.64,1.77q30,36.64,60.11,73.21l2.41,2.89v-3.54c0-23.76,0-47.52,0-71.28,0-2.32.44-3.13,3-3.08,8.74.18,17.48.16,26.22,0,2.35,0,2.82.72,2.81,2.92q-.09,62.14,0,124.27c0,2.1-.45,2.82-2.7,2.78q-13.11-.21-26.22,0a5.15,5.15,0,0,1-4.54-2.21q-30-36.69-60-73.29C1016.25,1665.31,1015.68,1664.65,1014.64,1663.42Z" transform="translate(-222.07 -1060)"/><path class="cls-1" d="M1446.54,1666.33c10.28,0,20.57.05,30.85,0,2,0,2.67.5,2.66,2.59q-.13,22,0,44c0,2.19-1.06,3.59-2.31,5-10.75,12.31-24.08,20.5-40,23.87-22.31,4.7-43.31,1.28-61.25-13.33-20.46-16.68-28.71-38.8-23.66-64.67,5.17-26.46,21.67-44.2,47.52-51.41,29.84-8.33,55.87-.91,76.46,23,2.22,2.57,2.15,2.63-.92,4.21l-22.54,11.55c-.93.48-1.69,1.19-2.76-.1-6.46-7.83-15.28-10.8-25-11.58-8.87-.72-17.42.48-25.24,5.12-12.32,7.32-19,21.94-16.76,36.76,2.33,15.41,13.24,28,27.83,31.23,13.75,3,26.71.84,38.37-7.51a4.43,4.43,0,0,0,2.14-4.31,50.22,50.22,0,0,1,0-7.36c.14-1.9-.6-2.2-2.29-2.19-11.2.07-22.4,0-33.59.1-2.44,0-3.08-.62-3-3q.27-9.56,0-19.11c-.06-2.37.75-2.86,2.94-2.84C1426.14,1666.39,1436.34,1666.33,1446.54,1666.33Z" transform="translate(-222.07 -1060)"/><path class="cls-1" d="M561.92,1676.48c0-20.58,0-41.15,0-61.73,0-2.37.42-3.25,3.08-3.24q46.29.16,92.58,0c2.3,0,3.17.41,3.11,2.94-.17,8-.14,16,0,24,0,2.25-.59,2.91-2.88,2.91-20.48-.09-41,0-61.45-.11-2.22,0-2.93.42-2.84,2.77.2,5.27.17,10.56,0,15.83-.06,2,.46,2.54,2.52,2.53,16.84-.09,33.68,0,50.52-.11,2.46,0,3,.67,3,3-.16,7.37-.14,14.75,0,22.12,0,2.13-.51,2.74-2.69,2.73-16.94-.1-33.87,0-50.8-.1-2,0-2.59.43-2.53,2.5.16,5.46.2,10.93,0,16.38-.1,2.42.74,2.73,2.88,2.72,20.3-.08,40.6,0,60.9-.12,2.9,0,3.46.84,3.4,3.52-.18,7.92-.13,15.84,0,23.76,0,2-.57,2.6-2.61,2.6q-46.71-.09-93.4,0c-2.18,0-2.75-.57-2.74-2.74C562,1718,561.92,1697.23,561.92,1676.48Z" transform="translate(-222.07 -1060)"/><path class="cls-1" d="M222.12,1676.45c0-20.67,0-41.33-.05-62,0-2.2.49-2.93,2.83-2.92q46.57.12,93.13,0c2.09,0,2.84.44,2.8,2.69q-.21,12.15,0,24.3c0,2.31-.67,2.89-2.91,2.88-20.49-.08-41,0-61.45-.1-2.27,0-2.89.51-2.81,2.8.19,5.36.14,10.74,0,16.11,0,1.83.53,2.21,2.27,2.21,16.84-.07,33.68,0,50.52-.11,2.71,0,3.3.8,3.24,3.35-.17,7.37-.12,14.75,0,22.12,0,1.93-.55,2.43-2.44,2.42-17-.07-34.05,0-51.07-.1-2.08,0-2.56.53-2.5,2.54.15,5.46.14,10.92,0,16.38,0,2.07.42,2.71,2.62,2.7,20.49-.1,41,0,61.45-.11,2.33,0,3.15.48,3.1,3-.17,8.1-.14,16.21,0,24.31,0,2.09-.64,2.57-2.64,2.57q-46.71-.09-93.41,0c-2.23,0-2.7-.67-2.7-2.78C222.15,1718,222.12,1697.2,222.12,1676.45Z" transform="translate(-222.07 -1060)"/><path class="cls-1" d="M438.46,1676.45c0-20.57.05-41.15-.07-61.72,0-2.71.79-3.28,3.35-3.23,8.56.17,17.12.14,25.68,0,2.19,0,2.69.59,2.69,2.72-.07,31.41,0,62.82-.11,94.23,0,2.51.41,3.31,3.15,3.29,20.12-.14,40.24-.08,60.36-.08,3.6,0,3.6,0,3.6,3.73,0,7.83-.07,15.66,0,23.49,0,2.06-.6,2.59-2.63,2.59q-46.69-.09-93.41,0c-2.21,0-2.72-.64-2.71-2.77C438.49,1718,438.46,1697.21,438.46,1676.45Z" transform="translate(-222.07 -1060)"/><path class="cls-1" d="M1139.92,1676.53c0-20.67,0-41.34-.06-62,0-2.43.61-3,3-3,8.74.15,17.48.11,26.22,0,1.87,0,2.47.44,2.46,2.4q-.07,62.54,0,125.08c0,1.89-.47,2.48-2.42,2.46-8.92-.1-17.84-.12-26.76,0-2.18,0-2.51-.77-2.5-2.7Q1140,1707.67,1139.92,1676.53Z" transform="translate(-222.07 -1060)"/><path class="cls-1" d="M377.94,1661.41c10.83,0,21.66,0,32.49,0,2,0,2.66.52,2.63,2.59q-.17,12.42,0,24.84c0,1.94-.59,2.44-2.48,2.44q-32.62-.1-65.25,0c-1.87,0-2.51-.45-2.49-2.42q.17-12.42,0-24.84c0-2.08.6-2.62,2.62-2.6C356.28,1661.46,367.11,1661.41,377.94,1661.41Z" transform="translate(-222.07 -1060)"/><path class="cls-1" d="M958.91,1738.68q-11.49-17.09-23.07-34.1c-1.23-1.79-1.73-2.85.7-4a22.62,22.62,0,0,0,5.79-4.51c8.71-8.52,13.11-19,14.15-31,2.45-28.21-16-53.78-47.13-53.46-19.2.19-38.41.07-57.61,0-2.35,0-3.08.5-3.07,3,.11,20.66.06,41.32.06,62s0,41.32,0,62c0,2,.36,2.85,2.66,2.81,8.83-.14,17.66-.12,26.48,0,2.08,0,2.58-.57,2.56-2.6-.12-9,0-18-.11-27,0-2.15.61-2.52,2.57-2.47,5.55.13,11.1.14,16.65,0a4,4,0,0,1,4.08,2.26c5.44,9.33,11.07,18.56,16.54,27.88a3.43,3.43,0,0,0,3.44,1.94c11.37-.07,22.75,0,34.13,0,.76,0,1.81.43,2.22-.45S959.34,1739.31,958.91,1738.68ZM907,1679.38c-8.27.19-16.54,0-24.81.1-1.71,0-1.86-.68-1.85-2.06.06-5.73,0-11.46,0-17.19s0-11.27,0-16.9c0-1.48.3-2,1.91-2,8.18.08,16.37-.08,24.54.07,10.11.17,17.92,8.39,18,18.75S917.13,1679.14,907,1679.38Z" transform="translate(-222.07 -1060)"/><path class="cls-1" d="M824.23,1738.8q-26.7-62.71-53.24-125.47a2.55,2.55,0,0,0-2.8-1.85q-15.42.12-30.85,0a2.68,2.68,0,0,0-3,2q-26.49,62.79-53.13,125.52c-.89,2.09-.4,2.43,1.64,2.41,9.65-.07,19.29-.08,28.94,0,1.71,0,2.36-.67,2.93-2.1,2.21-5.46,4.57-10.86,6.77-16.33a2.39,2.39,0,0,1,2.6-1.75q28.67.07,57.33,0A2.36,2.36,0,0,1,784,1723c2.16,5.48,4.5,10.9,6.65,16.38a2.65,2.65,0,0,0,3,2c4.82-.11,9.65,0,14.47,0s9.65-.09,14.47,0C824.91,1741.44,825.11,1740.87,824.23,1738.8Zm-90.79-44L753,1648.34c6.48,15.7,12.79,31,19.18,46.47Z" transform="translate(-222.07 -1060)"/><path class="cls-1" d="M998.6,1503.62A241.89,241.89,0,0,1,929.55,1540a249.51,249.51,0,0,1-57.53,11.9c-9.37.83-18.71.84-28.08.77-5.65-.27-11.25-1.16-16.91-1.28a1.36,1.36,0,0,1-1.63-1.44c-.15-7-.61-14.06-1-21.08a9.94,9.94,0,0,1-.08-1.54c0-11.1,0-22.2,0-33.29a5.55,5.55,0,0,1,.09-1c.32-6.94.85-13.87,1-20.82a7,7,0,0,1,.07-.92,38.78,38.78,0,0,0,.47-5.7,9.24,9.24,0,0,1,.07-1.28,14.21,14.21,0,0,0,.5-4.55,3.91,3.91,0,0,1,.15-.83,28.22,28.22,0,0,0,.38-5.51,4.24,4.24,0,0,1,.12-.87,29.93,29.93,0,0,0,1-8.32,5,5,0,0,1,.15-1.33,19.05,19.05,0,0,0,.94-6.49,17.4,17.4,0,0,1,.49-3.44,6.5,6.5,0,0,0,.62-3.34c2-10.86,3.78-21.75,7.21-32.28a58.75,58.75,0,0,1,7-15c2.86-3.66,5.51-7.51,9.19-10.44,2.58-2.31,5.59-4,8.22-6.29a4.69,4.69,0,0,1,.8-.34c5.64-3.28,11.78-5.13,18.08-6.63,6.58-1.57,13.32-1.52,20-2.07,3.85-.32,7.78.38,11.66.68,1.8.13,3.61.2,5.42.31a151.63,151.63,0,0,0,33.26.68,24.39,24.39,0,0,0,8.35-2.14c7.16-2.7,12.85-7.39,17.83-13.07l1.52-1.71a42.43,42.43,0,0,0,8-16.75,3.28,3.28,0,0,1,.14-.81,8.08,8.08,0,0,0,.8-3.27,12.93,12.93,0,0,0,.69-4.56c.06-5.27.18-10.55,0-15.82s-2-10.48-3.51-15.61c-.26-.67-.45-1.37-.72-2-4.12-11.85-9.71-22.79-19.27-31.3a11.21,11.21,0,0,0-1.88-1.56,187.29,187.29,0,0,0-29.51-21.29,80.76,80.76,0,0,0-8.88-4.91,149.12,149.12,0,0,0-21.19-8.48c-1.32,0-2.35-1-3.65-1.13a148.75,148.75,0,0,0-23.42-4.52,85.11,85.11,0,0,0-13.55-.41c-2,.12-2.76-.45-2.21-2.44a6.36,6.36,0,0,0,.23-1.07c.3-3.44,1.24-5.61,5.6-5.87a17.65,17.65,0,0,0,12.13-6.07c4.93-5.24,7.83-11.31,7.43-18.66a22.39,22.39,0,0,0-5-13.54c-5.35-8.17-18.52-11.86-27.5-7.82a27,27,0,0,0-10.68,8.23c-7.16,10.07-6.09,22.19,2.79,31.65,2.16,1.39,3.06,3.12,1.6,5.57a3.28,3.28,0,0,0-.28,1.84,10.74,10.74,0,0,1-.47,2.4c-3.1,9.14-.74,7-11.12,8.79a62,62,0,0,0-8.75,1.8,71,71,0,0,0-9.39,2.73c-1.73.71-2.74.09-3.39-1.57-1.6-4-3.09-8.15-4.87-12.13-.7-1.57.47-2.57,1.18-3.67a17,17,0,0,0,1.55-16.15c-4.8-12.17-20.68-14.3-28.48-5.59-.43.48-.9.91-1.35,1.36-4.63,4.9-5.39,13.55-1.67,19.44a26.17,26.17,0,0,0,2,2.87c2.9,3,6.22,5.3,10.5,5.81a3.14,3.14,0,0,1,2.66,2.36c1.57,4,3.18,7.92,4.84,11.84.84,2-.51,2.54-1.83,3.26A96.48,96.48,0,0,0,778.89,1238c-3.2,2.69-3.17,2.65-6.85.09-1.31-.92-2.69-1.76-4.08-2.57a16.45,16.45,0,0,0-3.64-1.8,69.32,69.32,0,0,0-23.47-6.16c-11.66-1-22.88.66-34,4-4.4,1.32-7.89,4.34-11.61,6.91-2.23,1-3.46,3.18-5.38,4.55l-2.75,2.7a50.5,50.5,0,0,0-10.43,17,12,12,0,0,0-.77,2.61c-.25,1.67.17,2.53,2.13,2.94,8.63,1.8,17.3,1.74,26,1.09a117.92,117.92,0,0,0,15.51-2.63c3-.86,6-1.72,8.91-2.69a120.64,120.64,0,0,0,13.09-5.43c2.59-1.23,5.15-2.55,7.69-3.88,4-1.62,7.8-3.5,10.24-7.3,2.47-2.61,5.57-2.78,8.81-2.2,1.71.31,2.19,1.77,1,3-4.08,4.15-7.16,9.06-10.61,13.69-.2.19-.47.35-.57.59-1.93,4.81-5.29,5.6-10.28,4.89-9.21-1.32-18.17.87-26.91,3.77-5.86,1.27-10.89,4.38-16,7.32a13.09,13.09,0,0,0-2.5,1.63C685,1291.37,677.92,1307.86,678,1328c0,2,.37,3.18,2.8,2.69,24.06-4.87,43.3-17.73,59.45-35.74.18-.2.33-.43.5-.65.51-.29,1-1,1.63-.4s-.27,1.29-.36,2a13.65,13.65,0,0,0-2,5.45,6.7,6.7,0,0,0-.59,2.23,9.13,9.13,0,0,0-1,3.76,7.67,7.67,0,0,1-.36.77,119.07,119.07,0,0,0-5,20.29c-.45,2.58-1.45,5.07-1.09,7.77a283.36,283.36,0,0,0-3.9,33.11,253,253,0,0,0-.35,36.73c.31,5.16.56,10.34.6,15.51.09,11.72,1.25,23.38,1.81,35.07.47,9.69,1.24,19.37,2.19,29,1.15,11.63,2.06,23.3,4,34.85.17,1,.38,2-.52,2.77s-1.48-.3-2.23-.49c-9.6-4.8-18.45-10.79-27.18-17-1-.68-1.89-1.42-2.83-2.13a6.82,6.82,0,0,0-2.25-1.61c-.94-.91-2.21-1.38-3.11-2.35a265,265,0,0,1-28.65-26.8c-4-4.45-7.84-9.07-11.75-13.61-1.14-1.08-1.66-2.64-2.86-3.67a261.6,261.6,0,0,1-23.78-38.13,247.68,247.68,0,0,1-20.36-56.68,258.39,258.39,0,0,1-5.94-67.17c0-.27,0-.54,0-.82.49-6.47,1-13,1.88-19.37a138.39,138.39,0,0,1,2.8-15.94c.5-1.91.15-4,1.27-5.75a246.57,246.57,0,0,1,38.73-87.06c1.79-2.54,3.62-5.05,5.43-7.58,1.2-1,1.72-2.59,2.86-3.66a264,264,0,0,1,26-27.92c4.7-4.28,9.6-8.33,14.42-12.49.89-1,2.16-1.44,3.1-2.35a7.08,7.08,0,0,0,2.26-1.61,245.53,245.53,0,0,1,69.2-36.38c2.73-.93,5.42-2.08,8.34-2.41,8-2.34,16-4.27,24.1-6q106.26-18.76,193.46,44.78a7.24,7.24,0,0,0,2.26,1.61c.94.91,2.21,1.38,3.1,2.35a270.18,270.18,0,0,1,26.83,24.8,245.9,245.9,0,0,1,53.39,88.75,254.83,254.83,0,0,1,12.43,59.35,227.73,227.73,0,0,1,.45,36,249,249,0,0,1-6.67,43.08,246.38,246.38,0,0,1-85,133.41c-.49.39-.94.84-1.41,1.27-.9,1-2.17,1.44-3.11,2.35A6.68,6.68,0,0,0,998.6,1503.62Z" transform="translate(-222.07 -1060)"/></g></svg>